<?xml version="1.0" encoding="UTF-8"?> <svg xmlns="http://www.w3.org/2000/svg" width="826" height="724" viewBox="0 0 826 724" fill="none"> <path d="M72.3968 598.417C69.9195 598.417 67.6899 597.921 65.4603 596.682L0.306641 559.004L0.802108 558.26L65.9558 595.938C69.9195 598.169 74.8742 598.169 78.8379 595.938L171.738 542.148L172.233 542.891L79.3333 596.682C77.1037 597.921 74.8741 598.417 72.3968 598.417Z" fill="#42E8E0"></path> <path d="M605.023 597.177L604.527 596.434L821.293 471.253C823.771 469.766 825.257 468.031 825.257 465.8C825.257 463.817 823.771 461.834 821.293 460.347L783.143 438.285L783.638 437.542L821.789 459.603C824.514 461.09 826 463.321 826 465.552C826 467.783 824.514 470.014 821.789 471.501L605.023 597.177Z" fill="#42E8E0"></path> <path d="M322.113 627.915C320.131 627.915 318.149 627.419 316.663 626.428L63.9754 480.673C62.489 479.682 61.498 478.442 61.498 477.203C61.498 476.211 62.2412 475.22 63.2322 474.476L213.854 387.47C216.331 385.982 220.79 386.23 223.515 387.965L475.955 533.968C477.441 534.959 478.432 536.199 478.432 537.438C478.432 538.43 477.689 539.421 476.698 540.165L326.076 627.171C325.333 627.667 323.599 627.915 322.113 627.915ZM64.4708 479.929L316.91 625.932C319.635 627.419 323.599 627.667 325.829 626.428L476.45 539.421C477.441 538.925 477.936 538.182 477.936 537.438C477.936 536.447 477.193 535.455 475.955 534.711L223.515 388.709C220.79 387.222 216.826 386.974 214.597 388.213L63.7276 475.468C62.7367 475.963 62.2412 476.707 62.2412 477.451C62.489 478.194 63.2322 479.186 64.4708 479.929Z" fill="#42E8E0"></path> <path d="M478.432 511.906L464.559 509.923L223.515 370.613C220.79 369.126 216.579 368.878 214.102 370.118L70.6645 452.91L61.7461 451.671V463.321C61.7461 464.313 62.4893 465.552 63.9757 466.296L316.415 612.298C319.14 613.786 323.352 614.033 325.829 612.794L476.45 525.787C477.441 525.044 477.937 524.3 477.937 523.309V511.906H478.432Z" fill="url(#paint0_linear)"></path> <path d="M64.2228 455.141L316.662 601.144C319.387 602.631 323.599 602.879 326.076 601.639L476.698 514.633C479.175 513.145 478.679 510.915 475.954 509.179L223.515 363.177C220.79 361.689 216.578 361.442 214.101 362.681L63.4796 449.688C61.25 451.175 61.4977 453.654 64.2228 455.141Z" fill="url(#paint1_linear)"></path> <path opacity="0.3" d="M86.0244 458.116L311.709 588.502C314.186 589.989 317.902 589.989 320.132 588.749L454.898 510.914C457.128 509.675 456.88 507.444 454.403 506.205L228.718 375.819C226.241 374.331 222.525 374.331 220.295 375.571L85.5289 453.158C83.2993 454.397 83.7948 456.628 86.0244 458.116Z" fill="#24126A"></path> <path d="M476.944 513.145L326.323 600.152C323.846 601.639 319.634 601.391 316.909 599.656L64.222 453.902C62.9833 453.158 62.2401 452.414 61.9924 451.423C61.4969 452.662 62.2401 454.15 64.222 455.141L316.661 601.144C319.387 602.631 323.598 602.879 326.075 601.639L476.697 514.633C477.935 513.889 478.431 512.65 478.183 511.658C478.183 512.154 477.688 512.65 476.944 513.145Z" fill="white"></path> <path d="M767.782 447.705L726.906 424.9C717.74 419.694 709.813 408.539 706.84 396.889L671.414 250.886C669.185 241.715 664.23 233.783 658.532 228.329L653.578 243.45C652.339 247.168 650.109 249.895 646.889 251.134C643.173 252.622 638.218 251.878 633.511 248.903L627.813 245.681L622.611 261.298C621.372 265.016 619.143 267.742 615.922 268.982C612.206 270.469 607.252 269.726 602.545 266.751L595.113 262.537C586.69 257.579 578.762 246.92 575.79 236.014C573.065 226.098 567.367 218.166 561.173 213.208L557.705 220.397C556.219 223.372 553.989 225.603 551.264 226.346C547.548 227.586 543.089 226.594 538.382 224.115L534.418 221.884L526.739 238.245C525.252 241.219 523.023 243.45 520.297 244.194C516.581 245.433 512.122 244.442 507.415 241.963L498.992 237.005C489.826 231.552 481.899 220.149 479.174 208.499L443.996 50.8457C441.766 40.9304 436.316 32.7503 430.371 27.049L379.585 166.111C378.347 169.581 376.117 172.06 372.897 173.299C369.181 174.787 364.474 173.795 359.519 171.068L354.317 168.094L348.619 183.958C347.38 187.429 345.151 189.908 341.93 191.147C338.214 192.386 333.507 191.643 328.552 188.916L299.072 171.812L330.782 153.221H331.03L354.069 166.359L405.102 26.5533C407.084 21.0999 411.047 18.3732 416.25 18.621C420.461 18.8689 425.416 21.3477 429.875 25.066L435.821 8.45787C437.803 3.00446 441.766 0.27776 446.969 0.525642C457.373 1.26929 471.494 14.1592 475.458 32.0067L510.636 189.66C513.113 201.062 521.288 212.465 529.959 217.67L533.675 219.901L537.143 212.217C539.373 207.507 543.337 205.276 548.291 205.772C552.007 206.02 556.219 208.003 560.43 211.225L568.358 194.617C570.587 189.908 574.551 187.677 579.506 188.172C589.167 188.916 602.297 200.319 607.252 217.422C610.224 228.081 617.904 238.492 626.079 243.45L626.822 243.946L632.025 227.833C633.759 222.132 637.723 219.158 643.173 219.405C647.632 219.653 652.834 222.132 657.789 226.346L662.991 209.986C664.726 204.285 668.689 201.31 674.139 201.558C684.544 202.054 698.417 214.448 702.876 232.295L738.302 378.298C741.027 389.7 748.955 400.855 757.873 405.813L798.749 428.618L798.253 429.362L757.378 406.556C748.211 401.351 740.284 390.196 737.311 378.546L701.885 232.543C697.674 215.191 683.801 202.797 673.892 202.302C673.644 202.302 673.644 202.302 673.396 202.302C668.689 202.302 665.221 205.028 663.735 210.234L658.285 226.842C664.23 232.295 669.433 240.475 671.662 250.143L707.088 396.145C709.813 407.548 717.74 418.703 726.659 423.66L767.535 446.465L767.782 447.705ZM561.669 212.217C567.862 217.422 573.808 225.603 576.533 235.766C579.506 246.425 587.185 256.836 595.36 261.793L602.792 266.007C607.499 268.734 611.959 269.478 615.675 267.99C618.647 266.999 620.629 264.52 621.868 260.802L627.07 244.937L626.079 244.442C617.656 239.484 609.729 228.825 606.756 217.918C602.049 201.062 589.167 189.908 579.753 189.164C575.046 188.668 571.578 190.899 569.596 195.113L561.669 212.217ZM628.061 244.689L634.007 248.16C638.714 250.886 643.173 251.63 646.889 250.143C649.862 249.151 651.843 246.672 653.082 242.954L658.037 227.338C653.33 223.124 648.127 220.397 643.668 220.397C638.714 220.149 635.245 222.876 633.511 228.329L628.061 244.689ZM430.866 25.8096C437.059 31.5109 442.757 39.9389 444.987 50.1021L480.165 207.755C482.642 219.158 490.817 230.56 499.488 235.766L507.911 240.723C512.37 243.202 516.581 244.194 520.05 242.954C522.775 242.211 524.757 240.228 526.243 237.501L533.923 221.141L529.959 218.91C520.793 213.456 512.865 202.054 510.14 190.403L474.962 32.7503C470.999 15.3986 457.126 2.5087 447.216 2.01294C442.262 1.76505 438.546 4.24387 436.812 9.20151L430.866 25.8096ZM535.161 220.893L539.125 223.124C543.584 225.603 547.796 226.594 551.264 225.355C553.989 224.611 555.971 222.628 557.457 219.901L560.926 212.465C556.962 209.242 552.75 207.507 549.034 207.259C544.328 206.763 540.859 208.994 538.877 213.208L535.161 220.893ZM300.806 171.316L329.296 187.677C334.003 190.403 338.462 191.147 341.93 189.908C344.655 188.916 346.885 186.685 348.123 183.215L354.069 167.102L331.278 153.965L300.806 171.316ZM354.812 166.854L360.262 169.829C364.969 172.556 369.428 173.299 372.897 172.06C375.622 171.068 377.851 168.838 379.09 165.367L429.875 26.0575C425.416 22.0914 420.461 19.8604 416.498 19.6126C411.543 19.3647 407.827 21.8435 406.093 26.8011L354.812 166.854Z" fill="#42E8E0"></path> <path d="M441.59 2.75858L441.219 2.1145L410.107 20.0824L410.479 20.7264L441.59 2.75858Z" fill="#42E8E0"></path> <path d="M573.653 190.629L573.281 189.985L541.737 208.19L542.108 208.834L573.653 190.629Z" fill="#42E8E0"></path> <path d="M670.223 203.469L669.854 202.824L636.976 221.692L637.346 222.337L670.223 203.469Z" fill="#42E8E0"></path> <path d="M767.782 447.705L726.906 424.9C717.74 419.694 709.813 408.539 706.84 396.889L671.414 250.886C669.185 241.715 664.23 233.783 658.532 228.329L653.578 243.45C652.339 247.168 650.109 249.895 646.889 251.134C643.173 252.622 638.218 251.878 633.511 248.903L627.813 245.681L622.611 261.298C621.372 265.016 619.143 267.742 615.922 268.982C612.206 270.469 607.252 269.726 602.545 266.751L595.113 262.537C586.69 257.579 578.762 246.92 575.79 236.014C573.065 226.098 567.367 218.166 561.173 213.208L557.705 220.397C556.219 223.372 553.989 225.603 551.264 226.346C547.548 227.586 543.089 226.594 538.382 224.115L534.418 221.884L526.739 238.245C525.252 241.219 523.023 243.45 520.297 244.194C516.581 245.433 512.122 244.442 507.415 241.963L498.992 237.005C489.826 231.552 481.899 220.149 479.174 208.499L443.996 50.8457C441.766 40.9304 436.316 32.7503 430.371 27.049L379.585 166.111C378.347 169.581 376.117 172.06 372.897 173.299C369.181 174.787 364.474 173.795 359.519 171.068L354.317 168.094L348.619 183.958C347.38 187.429 345.151 189.908 341.93 191.147C338.214 192.386 333.507 191.643 328.552 188.916L299.072 171.812L330.782 153.221H331.03L354.069 166.359L405.102 26.5533C407.084 21.0999 411.047 18.3732 416.25 18.621C420.461 18.8689 425.416 21.3477 429.875 25.066L435.821 8.45787C437.803 3.00446 441.766 0.27776 446.969 0.525642C457.373 1.26929 471.494 14.1592 475.458 32.0067L510.636 189.66C513.113 201.062 521.288 212.465 529.959 217.67L533.675 219.901L537.143 212.217C539.373 207.507 543.337 205.276 548.291 205.772C552.007 206.02 556.219 208.003 560.43 211.225L568.358 194.617C570.587 189.908 574.551 187.677 579.506 188.172C589.167 188.916 602.297 200.319 607.252 217.422C610.224 228.081 617.904 238.492 626.079 243.45L626.822 243.946L632.025 227.833C633.759 222.132 637.723 219.158 643.173 219.405C647.632 219.653 652.834 222.132 657.789 226.346L662.991 209.986C664.726 204.285 668.689 201.31 674.139 201.558C684.544 202.054 698.417 214.448 702.876 232.295L738.302 378.298C741.027 389.7 748.955 400.855 757.873 405.813L798.749 428.618L798.253 429.362L757.378 406.556C748.211 401.351 740.284 390.196 737.311 378.546L701.885 232.543C697.674 215.191 683.801 202.797 673.892 202.302C673.644 202.302 673.644 202.302 673.396 202.302C668.689 202.302 665.221 205.028 663.735 210.234L658.285 226.842C664.23 232.295 669.433 240.475 671.662 250.143L707.088 396.145C709.813 407.548 717.74 418.703 726.659 423.66L767.535 446.465L767.782 447.705ZM561.669 212.217C567.862 217.422 573.808 225.603 576.533 235.766C579.506 246.425 587.185 256.836 595.36 261.793L602.792 266.007C607.499 268.734 611.959 269.478 615.675 267.99C618.647 266.999 620.629 264.52 621.868 260.802L627.07 244.937L626.079 244.442C617.656 239.484 609.729 228.825 606.756 217.918C602.049 201.062 589.167 189.908 579.753 189.164C575.046 188.668 571.578 190.899 569.596 195.113L561.669 212.217ZM628.061 244.689L634.007 248.16C638.714 250.886 643.173 251.63 646.889 250.143C649.862 249.151 651.843 246.672 653.082 242.954L658.037 227.338C653.33 223.124 648.127 220.397 643.668 220.397C638.714 220.149 635.245 222.876 633.511 228.329L628.061 244.689ZM430.866 25.8096C437.059 31.5109 442.757 39.9389 444.987 50.1021L480.165 207.755C482.642 219.158 490.817 230.56 499.488 235.766L507.911 240.723C512.37 243.202 516.581 244.194 520.05 242.954C522.775 242.211 524.757 240.228 526.243 237.501L533.923 221.141L529.959 218.91C520.793 213.456 512.865 202.054 510.14 190.403L474.962 32.7503C470.999 15.3986 457.126 2.5087 447.216 2.01294C442.262 1.76505 438.546 4.24387 436.812 9.20151L430.866 25.8096ZM535.161 220.893L539.125 223.124C543.584 225.603 547.796 226.594 551.264 225.355C553.989 224.611 555.971 222.628 557.457 219.901L560.926 212.465C556.962 209.242 552.75 207.507 549.034 207.259C544.328 206.763 540.859 208.994 538.877 213.208L535.161 220.893ZM300.806 171.316L329.296 187.677C334.003 190.403 338.462 191.147 341.93 189.908C344.655 188.916 346.885 186.685 348.123 183.215L354.069 167.102L331.278 153.965L300.806 171.316ZM354.812 166.854L360.262 169.829C364.969 172.556 369.428 173.299 372.897 172.06C375.622 171.068 377.851 168.838 379.09 165.367L429.875 26.0575C425.416 22.0914 420.461 19.8604 416.498 19.6126C411.543 19.3647 407.827 21.8435 406.093 26.8011L354.812 166.854Z" fill="#42E8E0"></path> <path opacity="0.5" d="M330.783 153.717L359.768 170.573C368.439 175.53 376.118 173.795 379.091 165.863L436.317 9.20148C442.758 -8.64602 469.513 7.46631 475.211 32.7503L510.389 190.403C512.867 202.054 521.042 213.456 529.96 218.662L538.383 223.619C546.558 228.329 553.99 227.09 557.211 220.149L568.854 195.361C576.038 179.992 600.316 194.369 606.757 218.166C609.73 229.073 617.41 239.484 625.833 244.441L633.265 248.655C642.183 253.861 650.11 251.63 652.836 243.45L663.488 210.73C669.434 192.138 696.436 207.755 702.382 233.039L737.808 379.041C740.533 390.444 748.708 401.847 757.626 406.804L798.502 429.609L330.783 153.717Z" fill="url(#paint2_linear)"></path> <path opacity="0.5" d="M299.816 171.068L328.801 187.924C337.472 192.882 345.151 191.147 348.124 183.215L405.35 26.5532C411.792 8.70567 438.547 24.818 444.245 50.102L479.423 207.755C481.9 219.405 490.075 230.808 498.993 236.013L507.416 240.971C515.591 245.681 523.023 244.441 526.244 237.501L537.887 212.713C545.072 197.344 569.349 211.721 575.79 235.518C578.763 246.425 586.443 256.836 594.866 261.793L602.298 266.007C611.216 271.213 619.144 268.982 621.869 260.802L632.521 228.081C638.467 209.49 665.47 225.107 671.415 250.391L707.336 396.145C710.062 407.548 718.237 418.95 727.155 423.908L768.031 446.713L299.816 171.068Z" fill="url(#paint3_linear)"></path> <path d="M223.265 317.567L255.222 127.937L252.745 126.945L256.709 124.714C257.452 124.219 258.443 124.219 259.681 124.962L514.846 272.452C516.828 273.692 518.562 276.666 518.067 278.897L485.861 470.014C485.614 471.006 485.118 471.749 484.623 471.997L480.907 474.228L480.164 470.758H480.411L226.733 324.259C224.503 322.772 222.769 319.798 223.265 317.567Z" fill="url(#paint4_linear)"></path> <path d="M513.114 277.658L517.325 275.922C517.821 276.914 518.068 278.153 517.821 279.145L485.615 470.262C485.368 471.253 484.872 471.997 484.377 472.245L480.661 474.476L479.918 471.006H480.165L467.283 463.569L513.114 277.658Z" fill="url(#paint5_linear)"></path> <path d="M222.523 326.49L477.688 473.98C479.669 475.22 481.404 474.476 481.651 472.493L513.856 281.376C514.104 279.145 512.618 276.17 510.636 274.931L255.471 127.441C253.49 126.202 251.755 126.945 251.508 128.928L219.303 320.045C218.807 322.029 220.293 325.251 222.523 326.49Z" fill="#24126A"></path> <g opacity="0.51"> <path opacity="0.51" d="M254.481 130.911L510.884 278.897L478.431 470.51L222.275 322.524L254.481 130.911Z" fill="#453C9E"></path> </g> <path d="M62.2402 416.719L76.1133 423.908L215.834 343.346C218.064 342.107 222.275 342.107 225.001 343.842L465.797 482.904C468.026 481.664 478.679 476.459 478.679 476.459L473.476 484.639C473.229 485.135 472.733 485.878 471.99 486.126L324.837 571.15C322.607 572.389 318.396 572.389 315.671 570.654L69.1768 428.37C68.1858 427.626 67.4426 426.883 67.1949 426.139L62.2402 416.719Z" fill="url(#paint6_linear)"></path> <path d="M64.2228 419.198L316.662 565.201C319.387 566.688 323.599 566.936 326.076 565.696L476.698 478.69C479.175 477.203 478.679 474.972 475.954 473.236L223.515 327.234C220.79 325.747 216.578 325.499 214.101 326.738L63.4796 413.745C61.25 414.984 61.4977 417.463 64.2228 419.198Z" fill="url(#paint7_linear)"></path> <path d="M64.2214 417.959L316.661 563.961C319.386 565.449 323.597 565.696 326.075 564.457L476.696 477.45C477.439 476.955 477.935 476.459 478.183 475.715C478.43 476.707 477.935 477.946 476.696 478.69L326.075 565.696C323.597 567.184 319.386 566.936 316.661 565.201L64.2214 419.198C62.4872 418.207 61.744 416.719 61.9918 415.48C62.2395 416.472 62.9827 417.215 64.2214 417.959Z" fill="white"></path> <g opacity="0.15"> <g opacity="0.15"> <g opacity="0.15"> <path opacity="0.15" d="M222.273 325.251L236.146 332.439L375.868 251.878C378.097 250.638 382.309 250.638 385.034 252.374L625.582 391.187C627.812 389.948 638.464 384.743 638.464 384.743L633.262 392.923C633.014 393.418 632.519 394.162 631.775 394.41L484.622 479.433C482.393 480.673 478.181 480.673 475.456 478.938L228.962 336.653C227.971 335.91 227.228 335.166 226.98 334.423L222.273 325.251Z" fill="url(#paint8_linear)"></path> <path opacity="0.15" d="M224.255 327.482L476.943 473.237C479.668 474.724 483.879 474.972 486.356 473.732L636.978 386.726C639.455 385.238 638.96 383.007 636.235 381.272L383.795 235.27C381.07 233.783 376.859 233.535 374.381 234.774L223.76 321.781C221.283 323.516 221.53 325.747 224.255 327.482Z" fill="url(#paint9_linear)"></path> <path opacity="0.15" d="M636.234 381.272L383.795 235.27C382.061 234.278 379.583 233.782 377.602 234.03C379.088 234.03 380.822 234.526 382.061 235.27L634.5 381.272C637.225 382.76 637.473 385.238 635.243 386.726L484.374 473.732C483.631 474.228 482.392 474.476 481.154 474.724C482.888 474.972 484.87 474.476 486.108 473.732L636.73 386.726C639.455 385.238 638.959 382.76 636.234 381.272Z" fill="white"></path> </g> <g opacity="0.5"> <path opacity="0.5" d="M356.544 302.446L348.369 297.736C347.626 297.24 346.635 297.488 345.892 297.736L336.973 302.941C336.23 303.437 336.23 303.933 336.973 304.429L345.149 309.138C345.892 309.634 346.883 309.386 347.626 309.138L356.544 303.933C357.287 303.437 357.287 302.694 356.544 302.446Z" fill="#24126A"></path> <path opacity="0.5" d="M369.179 309.634L361.004 304.925C360.261 304.429 359.27 304.677 358.527 304.925L349.608 310.13C348.865 310.626 348.865 311.122 349.608 311.617L357.783 316.327C358.527 316.823 359.517 316.575 360.261 316.327L369.179 311.122C369.675 310.626 369.675 309.882 369.179 309.634Z" fill="#24126A"></path> <path opacity="0.5" d="M381.566 316.823L373.391 312.113C372.647 311.617 371.656 311.865 370.913 312.113L361.995 317.319C361.252 317.814 361.252 318.31 361.995 318.806L370.17 323.516C370.913 324.011 371.904 323.764 372.647 323.516L381.566 318.31C382.309 317.814 382.309 317.071 381.566 316.823Z" fill="#24126A"></path> <path opacity="0.5" d="M372.152 326.49L363.976 321.78C363.233 321.285 362.242 321.532 361.499 321.78L354.067 326.242C353.324 326.738 353.324 327.234 354.067 327.73L362.242 332.439C362.986 332.935 363.977 332.687 364.72 332.439L372.152 327.977C372.647 327.482 372.895 326.738 372.152 326.49Z" fill="#24126A"></path> <path opacity="0.5" d="M384.538 333.679L376.363 328.969C375.62 328.473 374.629 328.721 373.886 328.969L366.454 333.431C365.711 333.927 365.711 334.422 366.454 334.918L374.629 339.628C375.372 340.124 376.363 339.876 377.106 339.628L384.538 335.166C385.282 334.67 385.282 333.927 384.538 333.679Z" fill="#24126A"></path> <path opacity="0.5" d="M397.173 340.867L388.998 336.158C388.255 335.662 387.264 335.91 386.521 336.158L379.089 340.619C378.345 341.115 378.345 341.611 379.089 342.107L387.264 346.816C388.007 347.312 388.998 347.064 389.741 346.816L397.173 342.355C397.669 341.859 397.669 341.115 397.173 340.867Z" fill="#24126A"></path> <path opacity="0.5" d="M409.56 348.056L401.385 343.346C400.642 342.851 399.651 343.098 398.907 343.346L391.475 347.808C390.732 348.304 390.732 348.8 391.475 349.295L399.651 354.005C400.394 354.501 401.385 354.253 402.128 354.005L409.56 349.543C410.303 349.048 410.303 348.304 409.56 348.056Z" fill="#24126A"></path> <path opacity="0.5" d="M422.193 355.245L414.017 350.535C413.274 350.039 412.283 350.287 411.54 350.535L404.108 354.997C403.365 355.492 403.365 355.988 404.108 356.484L412.283 361.194C413.026 361.69 414.017 361.442 414.761 361.194L422.193 356.732C422.688 356.236 422.688 355.74 422.193 355.245Z" fill="#24126A"></path> <path opacity="0.5" d="M434.579 362.433L426.404 357.723C425.661 357.227 424.67 357.475 423.927 357.723L416.495 362.185C415.752 362.681 415.752 363.177 416.495 363.672L424.67 368.382C425.413 368.878 426.404 368.63 427.147 368.382L434.579 363.92C435.323 363.425 435.323 362.929 434.579 362.433Z" fill="#24126A"></path> <path opacity="0.5" d="M447.214 369.622L439.039 364.912C438.296 364.416 437.305 364.664 436.562 364.912L429.13 369.374C428.386 369.87 428.386 370.365 429.13 370.861L437.305 375.571C438.048 376.067 439.039 375.819 439.782 375.571L447.214 371.109C447.71 370.613 447.71 370.118 447.214 369.622Z" fill="#24126A"></path> <path opacity="0.5" d="M459.601 377.058L451.426 372.348C450.683 371.853 449.692 372.1 448.948 372.348L441.516 376.81C440.773 377.306 440.773 377.802 441.516 378.298L449.692 383.007C450.435 383.503 451.426 383.255 452.169 383.007L459.601 378.545C460.344 378.05 460.344 377.306 459.601 377.058Z" fill="#24126A"></path> <path opacity="0.5" d="M472.238 384.247L464.062 379.537C463.319 379.041 462.328 379.289 461.585 379.537L454.153 383.999C453.41 384.495 453.41 384.99 454.153 385.486L462.328 390.196C463.072 390.692 464.062 390.444 464.806 390.196L472.238 385.734C472.733 385.238 472.733 384.495 472.238 384.247Z" fill="#24126A"></path> <path opacity="0.5" d="M484.624 391.435L476.449 386.726C475.706 386.23 474.715 386.478 473.972 386.726L466.54 391.187C465.797 391.683 465.797 392.179 466.54 392.675L474.715 397.385C475.458 397.88 476.449 397.632 477.192 397.385L484.624 392.923C485.368 392.427 485.368 391.683 484.624 391.435Z" fill="#24126A"></path> <path opacity="0.5" d="M366.95 336.653L358.775 331.944C358.032 331.448 357.041 331.696 356.298 331.944L348.866 336.406C348.123 336.901 348.123 337.397 348.866 337.893L357.041 342.603C357.784 343.098 358.775 342.851 359.518 342.603L366.95 338.141C367.446 337.645 367.446 337.149 366.95 336.653Z" fill="#24126A"></path> <path opacity="0.5" d="M354.314 329.465L346.139 324.755C345.395 324.259 344.404 324.507 343.661 324.755L336.229 329.217C335.486 329.713 335.486 330.209 336.229 330.704L344.404 335.414C345.148 335.91 346.139 335.662 346.882 335.414L354.314 330.952C354.809 330.456 354.809 329.713 354.314 329.465Z" fill="#24126A"></path> <path opacity="0.5" d="M341.435 322.028L324.094 311.865C323.35 311.369 322.36 311.617 321.616 311.865L314.184 316.327C313.441 316.823 313.441 317.318 314.184 317.814L331.526 327.977C332.269 328.473 333.26 328.225 334.003 327.977L341.435 323.516C342.178 323.02 342.178 322.276 341.435 322.028Z" fill="#24126A"></path> <path opacity="0.5" d="M326.816 326.738L312.695 318.558C311.952 318.062 310.961 318.31 310.218 318.558L302.786 323.02C302.043 323.516 302.043 324.012 302.786 324.507L316.907 332.687C317.65 333.183 318.641 332.935 319.384 332.687L326.816 328.225C327.311 327.73 327.311 327.234 326.816 326.738Z" fill="#24126A"></path> <path opacity="0.5" d="M379.337 343.842L371.162 339.132C370.419 338.636 369.428 338.884 368.685 339.132L361.253 343.594C360.51 344.09 360.51 344.586 361.253 345.081L369.428 349.791C370.171 350.287 371.162 350.039 371.905 349.791L379.337 345.329C380.08 344.833 380.08 344.338 379.337 343.842Z" fill="#24126A"></path> <path opacity="0.5" d="M391.972 351.031L383.797 346.321C383.054 345.825 382.063 346.073 381.319 346.321L373.887 350.783C373.144 351.278 373.144 351.774 373.887 352.27L382.063 356.98C382.806 357.475 383.797 357.228 384.54 356.98L391.972 352.518C392.467 352.27 392.467 351.526 391.972 351.031Z" fill="#24126A"></path> <path opacity="0.5" d="M404.357 358.467L396.182 353.757C395.438 353.261 394.447 353.509 393.704 353.757L386.272 358.219C385.529 358.715 385.529 359.211 386.272 359.706L394.447 364.416C395.191 364.912 396.182 364.664 396.925 364.416L404.357 359.954C405.1 359.458 405.1 358.715 404.357 358.467Z" fill="#24126A"></path> <path opacity="0.5" d="M416.991 365.656L408.816 360.946C408.073 360.45 407.082 360.698 406.339 360.946L398.907 365.408C398.164 365.904 398.164 366.399 398.907 366.895L407.082 371.605C407.825 372.101 408.816 371.853 409.559 371.605L416.991 367.143C417.487 366.647 417.487 365.904 416.991 365.656Z" fill="#24126A"></path> <path opacity="0.5" d="M429.378 372.844L421.203 368.134C420.46 367.639 419.469 367.886 418.726 368.134L411.294 372.596C410.551 373.092 410.551 373.588 411.294 374.084L419.469 378.793C420.212 379.289 421.203 379.041 421.946 378.793L429.378 374.331C430.121 373.836 430.121 373.092 429.378 372.844Z" fill="#24126A"></path> <path opacity="0.5" d="M442.011 380.033L433.836 375.323C433.093 374.827 432.102 375.075 431.359 375.323L423.927 379.785C423.183 380.281 423.183 380.776 423.927 381.272L432.102 385.982C432.845 386.478 433.836 386.23 434.579 385.982L442.011 381.52C442.506 381.024 442.506 380.529 442.011 380.033Z" fill="#24126A"></path> <path opacity="0.5" d="M454.398 387.221L446.223 382.512C445.479 382.016 444.488 382.264 443.745 382.512L436.313 386.973C435.57 387.469 435.57 387.965 436.313 388.461L444.488 393.17C445.232 393.666 446.223 393.418 446.966 393.17L454.398 388.709C455.141 388.213 455.141 387.717 454.398 387.221Z" fill="#24126A"></path> <path opacity="0.5" d="M467.033 394.41L458.857 389.7C458.114 389.204 457.123 389.452 456.38 389.7L448.948 394.162C448.205 394.658 448.205 395.153 448.948 395.649L457.123 400.359C457.866 400.855 458.857 400.607 459.601 400.359L467.033 395.897C467.528 395.401 467.528 394.906 467.033 394.41Z" fill="#24126A"></path> <path opacity="0.5" d="M479.419 401.599L471.244 396.889C470.501 396.393 469.51 396.641 468.767 396.889L461.335 401.351C460.592 401.846 460.592 402.342 461.335 402.838L469.51 407.548C470.253 408.043 471.244 407.796 471.987 407.548L479.419 403.086C480.162 402.59 480.162 402.094 479.419 401.599Z" fill="#24126A"></path> <path opacity="0.5" d="M501.716 414.488L484.127 404.325C483.384 403.829 482.393 404.077 481.65 404.325L474.218 408.787C473.474 409.283 473.474 409.779 474.218 410.274L491.807 420.437C492.55 420.933 493.541 420.685 494.284 420.437L501.716 415.976C502.211 415.48 502.211 414.984 501.716 414.488Z" fill="#24126A"></path> <path opacity="0.5" d="M478.676 427.874L463.812 419.198C463.069 418.702 462.078 418.95 461.335 419.198L453.903 423.66C453.16 424.156 453.16 424.651 453.903 425.147L468.767 433.823C469.51 434.319 470.501 434.071 471.244 433.823L478.676 429.361C479.42 428.865 479.42 428.37 478.676 427.874Z" fill="#24126A"></path> <path opacity="0.5" d="M377.601 356.236L369.426 351.526C368.683 351.03 367.692 351.278 366.948 351.526L359.516 355.988C358.773 356.484 358.773 356.98 359.516 357.475L367.692 362.185C368.435 362.681 369.426 362.433 370.169 362.185L377.601 357.723C378.344 357.228 378.344 356.732 377.601 356.236Z" fill="#24126A"></path> <path opacity="0.5" d="M364.968 348.8L356.793 344.09C356.05 343.594 355.059 343.842 354.316 344.09L346.884 348.552C346.14 349.047 346.14 349.543 346.884 350.039L355.059 354.749C355.802 355.245 356.793 354.997 357.536 354.749L364.968 350.287C365.463 349.791 365.463 349.295 364.968 348.8Z" fill="#24126A"></path> <path opacity="0.5" d="M352.087 341.363L343.912 336.653C343.169 336.158 342.178 336.406 341.435 336.653L334.003 341.115C333.26 341.611 333.26 342.107 334.003 342.603L342.178 347.312C342.921 347.808 343.912 347.56 344.655 347.312L352.087 342.85C352.583 342.355 352.83 341.859 352.087 341.363Z" fill="#24126A"></path> <path opacity="0.5" d="M339.202 333.927L331.027 329.217C330.284 328.721 329.293 328.969 328.55 329.217L321.118 333.679C320.375 334.175 320.375 334.67 321.118 335.166L329.293 339.876C330.036 340.372 331.027 340.124 331.77 339.876L339.202 335.414C339.946 334.918 339.946 334.422 339.202 333.927Z" fill="#24126A"></path> <path opacity="0.5" d="M390.236 363.425L382.06 358.715C381.317 358.219 380.326 358.467 379.583 358.715L372.151 363.177C371.408 363.673 371.408 364.168 372.151 364.664L380.326 369.374C381.07 369.87 382.06 369.622 382.804 369.374L390.236 364.912C390.731 364.416 390.731 363.92 390.236 363.425Z" fill="#24126A"></path> <path opacity="0.5" d="M402.622 370.613L394.447 365.903C393.704 365.408 392.713 365.656 391.97 365.903L384.538 370.365C383.795 370.861 383.795 371.357 384.538 371.853L392.713 376.562C393.456 377.058 394.447 376.81 395.19 376.562L402.622 372.1C403.366 371.605 403.366 371.109 402.622 370.613Z" fill="#24126A"></path> <path opacity="0.5" d="M415.259 377.802L407.084 373.092C406.341 372.596 405.35 372.844 404.607 373.092L397.175 377.554C396.431 378.05 396.431 378.546 397.175 379.041L405.35 383.751C406.093 384.247 407.084 383.999 407.827 383.751L415.259 379.289C415.755 378.793 415.755 378.298 415.259 377.802Z" fill="#24126A"></path> <path opacity="0.5" d="M427.646 385.238L419.471 380.529C418.727 380.033 417.736 380.281 416.993 380.529L409.561 384.99C408.818 385.486 408.818 385.982 409.561 386.478L417.736 391.187C418.48 391.683 419.471 391.435 420.214 391.187L427.646 386.726C428.389 386.23 428.389 385.486 427.646 385.238Z" fill="#24126A"></path> <path opacity="0.5" d="M440.279 392.427L432.103 387.717C431.36 387.221 430.369 387.469 429.626 387.717L422.194 392.179C421.451 392.675 421.451 393.171 422.194 393.666L430.369 398.376C431.113 398.872 432.103 398.624 432.847 398.376L440.279 393.914C440.774 393.418 440.774 392.675 440.279 392.427Z" fill="#24126A"></path> <path opacity="0.5" d="M452.665 399.615L444.49 394.906C443.747 394.41 442.756 394.658 442.013 394.906L434.581 399.367C433.838 399.863 433.838 400.359 434.581 400.855L442.756 405.565C443.499 406.06 444.49 405.812 445.233 405.565L452.665 401.103C453.408 400.607 453.408 399.863 452.665 399.615Z" fill="#24126A"></path> <path opacity="0.5" d="M465.3 406.804L457.125 402.094C456.382 401.598 455.391 401.846 454.648 402.094L447.216 406.556C446.472 407.052 446.472 407.548 447.216 408.043L455.391 412.753C456.134 413.249 457.125 413.001 457.868 412.753L465.3 408.291C465.795 407.795 465.795 407.052 465.3 406.804Z" fill="#24126A"></path> <path opacity="0.5" d="M477.687 413.993L469.512 409.283C468.768 408.787 467.778 409.035 467.034 409.283L459.602 413.745C458.859 414.24 458.859 414.736 459.602 415.232L467.778 419.942C468.521 420.437 469.512 420.19 470.255 419.942L477.687 415.48C478.182 414.984 478.43 414.488 477.687 413.993Z" fill="#24126A"></path> <path opacity="0.5" d="M490.32 421.181L482.144 416.471C481.401 415.976 480.41 416.224 479.667 416.471L472.235 420.933C471.492 421.429 471.492 421.925 472.235 422.421L480.41 427.13C481.153 427.626 482.144 427.378 482.888 427.13L490.32 422.668C490.815 422.173 490.815 421.677 490.32 421.181Z" fill="#24126A"></path> <path opacity="0.5" d="M347.378 352.022L339.203 347.312C338.46 346.817 337.469 347.064 336.726 347.312L329.294 351.774C328.551 352.27 328.551 352.766 329.294 353.261L337.469 357.971C338.212 358.467 339.203 358.219 339.946 357.971L347.378 353.509C348.121 353.014 348.121 352.518 347.378 352.022Z" fill="#24126A"></path> <path opacity="0.5" d="M334.993 344.833L326.818 340.124C326.075 339.628 325.084 339.876 324.341 340.124L316.909 344.586C316.166 345.081 316.166 345.577 316.909 346.073L325.084 350.783C325.827 351.278 326.818 351.03 327.561 350.783L334.993 346.321C335.737 345.825 335.737 345.329 334.993 344.833Z" fill="#24126A"></path> <path opacity="0.5" d="M322.607 337.645L314.432 332.935C313.688 332.439 312.697 332.687 311.954 332.935L304.522 337.397C303.779 337.893 303.779 338.389 304.522 338.884L312.697 343.594C313.441 344.09 314.432 343.842 315.175 343.594L322.607 339.132C323.102 338.636 323.35 338.141 322.607 337.645Z" fill="#24126A"></path> <path opacity="0.5" d="M310.22 330.456L302.045 325.747C301.302 325.251 300.311 325.499 299.568 325.747L292.136 330.209C291.392 330.704 291.392 331.2 292.136 331.696L300.311 336.406C301.054 336.901 302.045 336.653 302.788 336.406L310.22 331.944C310.715 331.448 310.715 330.952 310.22 330.456Z" fill="#24126A"></path> <path opacity="0.5" d="M298.08 337.645L289.905 332.935C289.161 332.439 288.17 332.687 287.427 332.935L284.95 334.422C284.207 334.918 284.207 335.414 284.95 335.91L293.125 340.62C293.868 341.115 294.859 340.867 295.602 340.62L298.08 339.132C298.823 338.636 298.823 337.893 298.08 337.645Z" fill="#24126A"></path> <path opacity="0.5" d="M314.429 347.064L306.254 342.355C305.511 341.859 304.52 342.107 303.777 342.355L301.3 343.842C300.556 344.338 300.556 344.834 301.3 345.329L309.475 350.039C310.218 350.535 311.209 350.287 311.952 350.039L314.429 348.552C314.925 348.056 314.925 347.312 314.429 347.064Z" fill="#24126A"></path> <path opacity="0.5" d="M326.816 354.005L318.641 349.296C317.898 348.8 316.907 349.048 316.164 349.296L313.686 350.783C312.943 351.279 312.943 351.774 313.686 352.27L321.861 356.98C322.605 357.476 323.596 357.228 324.339 356.98L326.816 355.493C327.312 355.245 327.312 354.501 326.816 354.005Z" fill="#24126A"></path> <path opacity="0.5" d="M339.203 361.194L331.028 356.484C330.284 355.988 329.294 356.236 328.55 356.484L326.073 357.971C325.33 358.467 325.33 358.963 326.073 359.459L334.248 364.168C334.991 364.664 335.982 364.416 336.726 364.168L339.203 362.681C339.698 362.185 339.698 361.689 339.203 361.194Z" fill="#24126A"></path> <path opacity="0.5" d="M351.59 368.382L343.414 363.672C342.671 363.177 341.68 363.425 340.937 363.672L338.46 365.16C337.717 365.656 337.717 366.151 338.46 366.647L346.635 371.357C347.378 371.853 348.369 371.605 349.112 371.357L351.59 369.87C352.085 369.374 352.085 368.878 351.59 368.382Z" fill="#24126A"></path> <path opacity="0.5" d="M420.707 408.291L412.532 403.581C411.788 403.086 410.797 403.334 410.054 403.581L407.577 405.069C406.834 405.564 406.834 406.06 407.577 406.556L415.752 411.266C416.495 411.762 417.486 411.514 418.229 411.266L420.707 409.778C421.202 409.283 421.202 408.787 420.707 408.291Z" fill="#24126A"></path> <path opacity="0.5" d="M433.093 415.48L424.918 410.77C424.175 410.274 423.184 410.522 422.441 410.77L419.964 412.257C419.22 412.753 419.22 413.249 419.964 413.745L428.139 418.454C428.882 418.95 429.873 418.702 430.616 418.454L433.093 416.967C433.589 416.471 433.589 415.976 433.093 415.48Z" fill="#24126A"></path> <path opacity="0.5" d="M445.48 422.668L437.305 417.959C436.562 417.463 435.571 417.711 434.828 417.959L432.35 419.446C431.607 419.942 431.607 420.438 432.35 420.933L440.526 425.643C441.269 426.139 442.26 425.891 443.003 425.643L445.48 424.156C445.976 423.66 445.976 423.164 445.48 422.668Z" fill="#24126A"></path> <path opacity="0.5" d="M457.867 429.857L449.692 425.147C448.949 424.652 447.958 424.899 447.214 425.147L444.737 426.635C443.994 427.13 443.994 427.626 444.737 428.122L452.912 432.832C453.655 433.327 454.646 433.08 455.39 432.832L457.867 431.344C458.362 430.849 458.362 430.105 457.867 429.857Z" fill="#24126A"></path> <path opacity="0.5" d="M360.013 359.211L351.838 354.501C351.095 354.005 350.104 354.253 349.36 354.501L341.928 358.963C341.185 359.459 341.185 359.954 341.928 360.45L350.104 365.16C350.847 365.656 351.838 365.408 352.581 365.16L360.013 360.698C360.508 360.45 360.508 359.706 360.013 359.211Z" fill="#24126A"></path> <path opacity="0.5" d="M372.4 366.647L364.225 361.937C363.481 361.442 362.49 361.689 361.747 361.937L354.315 366.399C353.572 366.895 353.572 367.391 354.315 367.887L362.49 372.596C363.234 373.092 364.225 372.844 364.968 372.596L372.4 368.134C373.143 367.639 373.143 366.895 372.4 366.647Z" fill="#24126A"></path> <path opacity="0.5" d="M385.032 373.836L376.857 369.126C376.114 368.63 375.123 368.878 374.38 369.126L366.948 373.588C366.205 374.084 366.205 374.579 366.948 375.075L375.123 379.785C375.866 380.281 376.857 380.033 377.601 379.785L385.032 375.323C385.528 374.827 385.528 374.084 385.032 373.836Z" fill="#24126A"></path> <path opacity="0.5" d="M397.419 381.024L389.244 376.314C388.501 375.819 387.51 376.067 386.767 376.314L379.335 380.776C378.592 381.272 378.592 381.768 379.335 382.264L387.51 386.973C388.253 387.469 389.244 387.221 389.987 386.973L397.419 382.511C398.162 382.016 398.162 381.272 397.419 381.024Z" fill="#24126A"></path> <path opacity="0.5" d="M410.054 388.213L401.879 383.503C401.136 383.007 400.145 383.255 399.401 383.503L391.97 387.965C391.226 388.461 391.226 388.956 391.97 389.452L400.145 394.162C400.888 394.658 401.879 394.41 402.622 394.162L410.054 389.7C410.549 389.204 410.549 388.709 410.054 388.213Z" fill="#24126A"></path> <path opacity="0.5" d="M422.441 395.401L414.266 390.692C413.522 390.196 412.531 390.444 411.788 390.692L404.356 395.154C403.613 395.649 403.613 396.145 404.356 396.641L412.531 401.351C413.275 401.846 414.266 401.599 415.009 401.351L422.441 396.889C423.184 396.393 423.184 395.897 422.441 395.401Z" fill="#24126A"></path> <path opacity="0.5" d="M435.077 402.59L426.902 397.88C426.159 397.384 425.168 397.632 424.425 397.88L416.993 402.342C416.25 402.838 416.25 403.334 416.993 403.829L425.168 408.539C425.911 409.035 426.902 408.787 427.645 408.539L435.077 404.077C435.573 403.582 435.573 403.086 435.077 402.59Z" fill="#24126A"></path> <path opacity="0.5" d="M447.464 409.779L439.289 405.069C438.546 404.573 437.555 404.821 436.812 405.069L429.38 409.531C428.636 410.027 428.636 410.522 429.38 411.018L437.555 415.728C438.298 416.224 439.289 415.976 440.032 415.728L447.464 411.266C448.207 410.77 448.207 410.274 447.464 409.779Z" fill="#24126A"></path> <path opacity="0.5" d="M460.097 417.215L451.922 412.505C451.179 412.01 450.188 412.257 449.444 412.505L442.012 416.967C441.269 417.463 441.269 417.959 442.012 418.454L450.188 423.164C450.931 423.66 451.922 423.412 452.665 423.164L460.097 418.702C460.592 418.207 460.592 417.463 460.097 417.215Z" fill="#24126A"></path> <path opacity="0.5" d="M359.271 319.054L335.488 305.172C334.745 304.677 333.754 304.925 333.011 305.172L325.579 309.634C324.836 310.13 324.836 310.626 325.579 311.122L349.361 325.003C350.104 325.499 351.095 325.251 351.839 325.003L359.271 320.541C360.014 320.045 360.014 319.302 359.271 319.054Z" fill="#24126A"></path> <path opacity="0.5" d="M512.864 407.796L489.082 393.914C488.339 393.418 487.348 393.666 486.605 393.914L479.173 398.376C478.429 398.872 478.429 399.368 479.173 399.863L502.955 413.745C503.698 414.24 504.689 413.993 505.432 413.745L512.864 409.283C513.607 408.787 513.607 408.043 512.864 407.796Z" fill="#24126A"></path> <path opacity="0.5" d="M489.826 379.289L481.65 374.579C480.907 374.084 479.916 374.331 479.173 374.579L470.255 379.785C469.511 380.281 469.511 380.776 470.255 381.272L478.43 385.982C479.173 386.478 480.164 386.23 480.907 385.982L489.826 380.776C490.321 380.281 490.321 379.537 489.826 379.289Z" fill="#24126A"></path> <path opacity="0.5" d="M398.905 326.738L386.023 319.302C385.28 318.806 384.289 319.054 383.546 319.302L374.628 324.507C373.885 325.003 373.885 325.499 374.628 325.994L387.51 333.431C388.253 333.927 389.244 333.679 389.987 333.431L398.905 328.225C399.649 327.73 399.649 327.234 398.905 326.738Z" fill="#24126A"></path> <path opacity="0.5" d="M477.687 372.348L464.805 364.912C464.061 364.416 463.071 364.664 462.327 364.912L453.409 370.117C452.666 370.613 452.666 371.109 453.409 371.605L466.291 379.041C467.034 379.537 468.025 379.289 468.768 379.041L477.687 373.836C478.43 373.34 478.43 372.596 477.687 372.348Z" fill="#24126A"></path> <path opacity="0.5" d="M416.991 337.149L404.109 329.713C403.366 329.217 402.375 329.465 401.632 329.713L392.714 334.918C391.97 335.414 391.97 335.91 392.714 336.406L405.596 343.842C406.339 344.338 407.33 344.09 408.073 343.842L416.991 338.637C417.735 338.141 417.735 337.645 416.991 337.149Z" fill="#24126A"></path> <path opacity="0.5" d="M392.713 336.653L448.948 369.126C449.691 369.622 450.682 369.622 451.426 369.126L460.592 363.673C461.335 363.177 461.335 362.681 460.592 362.185L404.356 329.713L392.713 336.653Z" fill="#24126A"></path> <path opacity="0.5" d="M512.862 399.368L521.78 404.573C522.276 404.821 523.267 404.821 523.762 404.573L527.478 402.342C527.974 402.094 527.974 401.599 527.478 401.103L518.56 395.897C518.064 395.649 517.073 395.649 516.578 395.897L512.862 398.128C512.366 398.376 512.366 398.872 512.862 399.368Z" fill="#24126A"></path> <path opacity="0.5" d="M500.229 391.931L509.147 397.137C509.643 397.385 510.634 397.385 511.129 397.137L514.845 394.906C515.341 394.658 515.341 394.162 514.845 393.666L505.927 388.461C505.431 388.213 504.44 388.213 503.945 388.461L500.229 390.692C499.734 391.188 499.734 391.683 500.229 391.931Z" fill="#24126A"></path> <path opacity="0.5" d="M487.594 384.742L496.513 389.948C497.008 390.196 497.999 390.196 498.494 389.948L502.21 387.717C502.706 387.469 502.706 386.973 502.21 386.478L493.292 381.272C492.797 381.024 491.806 381.024 491.31 381.272L487.594 383.503C487.099 383.999 487.099 384.495 487.594 384.742Z" fill="#24126A"></path> <path opacity="0.5" d="M493.788 395.897L502.706 401.103C503.201 401.351 504.192 401.351 504.688 401.103L508.404 398.872C508.899 398.624 508.899 398.128 508.404 397.632L499.485 392.427C498.99 392.179 497.999 392.179 497.504 392.427L493.788 394.658C493.292 394.906 493.292 395.401 493.788 395.897Z" fill="#24126A"></path> </g> </g> </g> <g opacity="0.8"> <path opacity="0.8" d="M180.407 402.838L172.48 398.128C171.737 397.633 171.985 397.137 172.728 396.641L182.142 391.188C182.885 390.692 184.123 390.692 184.619 391.188L192.546 395.897C193.29 396.145 193.042 396.889 192.299 397.385L182.885 402.838C182.142 403.334 181.151 403.334 180.407 402.838Z" fill="#24126A"></path> <path opacity="0.8" d="M192.794 410.027L184.867 405.317C184.124 404.821 184.371 404.325 185.114 403.83L194.528 398.376C195.271 397.88 196.51 397.88 197.006 398.376L204.933 403.086C205.676 403.582 205.429 404.078 204.685 404.573L195.271 410.027C194.528 410.522 193.537 410.522 192.794 410.027Z" fill="#24126A"></path> <path opacity="0.8" d="M205.181 417.215L197.253 412.506C196.51 412.01 196.758 411.514 197.501 411.018L206.915 405.565C207.658 405.069 208.897 405.069 209.392 405.565L217.32 410.275C218.063 410.77 217.815 411.266 217.072 411.762L207.658 417.215C206.915 417.711 205.924 417.711 205.181 417.215Z" fill="#24126A"></path> <path opacity="0.8" d="M222.275 411.266L214.347 406.556C213.604 406.309 213.852 405.565 214.595 405.069L222.522 400.359C223.266 399.864 224.504 399.864 225 400.359L232.927 405.069C233.67 405.565 233.423 406.061 232.679 406.556L224.752 411.266C224.009 411.762 223.018 411.762 222.275 411.266Z" fill="#24126A"></path> <path opacity="0.8" d="M234.661 418.455L226.734 413.745C225.991 413.497 226.238 412.753 226.982 412.258L234.909 407.548C235.652 407.052 236.891 407.052 237.386 407.548L245.314 412.258C246.057 412.506 245.809 413.249 245.066 413.745L237.139 418.455C236.395 418.951 235.404 418.951 234.661 418.455Z" fill="#24126A"></path> <path opacity="0.8" d="M247.048 425.643L239.121 420.933C238.377 420.438 238.625 419.942 239.368 419.446L247.296 414.736C248.039 414.241 249.278 414.241 249.773 414.736L257.701 419.446C258.444 419.694 258.196 420.438 257.453 420.933L249.525 425.643C248.782 425.891 247.791 426.139 247.048 425.643Z" fill="#24126A"></path> <path opacity="0.8" d="M259.435 432.832L251.507 428.122C250.764 427.874 251.012 427.131 251.755 426.635L259.682 421.925C260.426 421.429 261.664 421.429 262.16 421.925L270.087 426.635C270.83 427.131 270.583 427.626 269.839 428.122L261.912 432.832C261.169 433.08 260.178 433.08 259.435 432.832Z" fill="#24126A"></path> <path opacity="0.8" d="M271.821 440.02L263.894 435.311C263.151 435.063 263.399 434.319 264.142 433.823L272.069 429.114C272.812 428.618 274.051 428.618 274.547 429.114L282.474 433.823C283.217 434.071 282.969 434.815 282.226 435.311L274.299 440.02C273.556 440.268 272.565 440.268 271.821 440.02Z" fill="#24126A"></path> <path opacity="0.8" d="M284.208 447.209L276.281 442.499C275.538 442.004 275.785 441.508 276.529 441.012L284.456 436.302C285.199 435.806 286.438 435.806 286.933 436.302L294.861 441.012C295.604 441.26 295.356 442.004 294.613 442.499L286.685 447.209C285.942 447.457 284.951 447.457 284.208 447.209Z" fill="#24126A"></path> <path opacity="0.8" d="M296.595 454.398L288.667 449.688C287.924 449.192 288.172 448.696 288.915 448.201L296.843 443.491C297.586 442.995 298.825 442.995 299.32 443.491L307.247 448.201C307.991 448.696 307.743 449.192 307 449.688L299.072 454.398C298.329 454.646 297.338 454.646 296.595 454.398Z" fill="#24126A"></path> <path opacity="0.8" d="M308.982 461.338L301.054 456.628C300.311 456.133 300.559 455.637 301.302 455.141L309.229 450.431C309.973 449.936 311.211 449.936 311.707 450.431L319.634 455.141C320.377 455.637 320.13 456.133 319.386 456.628L311.459 461.338C310.716 461.834 309.725 461.834 308.982 461.338Z" fill="#24126A"></path> <path opacity="0.8" d="M321.368 468.527L313.441 463.817C312.698 463.569 312.945 462.826 313.689 462.33L321.616 457.62C322.359 457.124 323.598 457.124 324.093 457.62L332.021 462.33C332.764 462.826 332.516 463.321 331.773 463.817L323.846 468.527C323.102 469.023 322.112 469.023 321.368 468.527Z" fill="#24126A"></path> <path opacity="0.8" d="M333.755 475.715L325.828 471.006C325.084 470.758 325.332 470.014 326.075 469.518L334.003 464.809C334.746 464.313 335.985 464.313 336.48 464.809L344.408 469.518C345.151 469.766 344.903 470.51 344.16 471.006L336.232 475.715C335.489 475.963 334.498 476.211 333.755 475.715Z" fill="#24126A"></path> <path opacity="0.8" d="M240.607 408.044L232.679 403.334C231.936 402.838 232.184 402.342 232.927 401.846L240.854 397.137C241.598 396.641 242.836 396.641 243.332 397.137L251.259 401.846C252.002 402.094 251.755 402.838 251.011 403.334L243.084 408.044C242.341 408.291 241.102 408.291 240.607 408.044Z" fill="#24126A"></path> <path opacity="0.8" d="M227.972 400.607L220.044 395.897C219.301 395.65 219.549 394.906 220.292 394.41L228.22 389.7C228.963 389.205 230.201 389.205 230.697 389.7L238.624 394.41C239.368 394.906 239.12 395.402 238.377 395.897L230.449 400.607C229.706 401.103 228.715 401.103 227.972 400.607Z" fill="#24126A"></path> <path opacity="0.8" d="M215.339 393.419L197.998 383.503C197.254 383.007 197.502 382.512 198.245 382.016L206.173 377.306C206.916 376.81 208.155 376.81 208.65 377.306L225.991 387.221C226.735 387.469 226.487 388.213 225.744 388.709L217.816 393.419C217.073 393.666 216.082 393.914 215.339 393.419Z" fill="#24126A"></path> <path opacity="0.8" d="M224.255 384.495L210.134 376.315C209.391 376.067 209.639 375.323 210.382 374.827L218.309 370.118C219.053 369.622 220.291 369.622 220.787 370.118L234.908 378.298C235.651 378.794 235.403 379.289 234.66 379.785L226.732 384.495C225.989 384.991 224.751 384.991 224.255 384.495Z" fill="#24126A"></path> <path opacity="0.8" d="M252.993 415.232L245.066 410.522C244.323 410.027 244.57 409.531 245.314 409.035L253.241 404.325C253.984 403.83 255.223 403.83 255.718 404.325L263.646 409.035C264.389 409.531 264.141 410.027 263.398 410.522L255.471 415.232C254.728 415.48 253.489 415.48 252.993 415.232Z" fill="#24126A"></path> <path opacity="0.8" d="M265.38 422.173L257.453 417.463C256.709 416.967 256.957 416.472 257.7 415.976L265.628 411.266C266.371 410.77 267.61 410.77 268.105 411.266L276.033 415.976C276.776 416.472 276.528 416.967 275.785 417.463L267.857 422.173C267.114 422.669 265.876 422.669 265.38 422.173Z" fill="#24126A"></path> <path opacity="0.8" d="M277.767 429.361L269.839 424.652C269.096 424.404 269.344 423.66 270.087 423.164L278.015 418.455C278.758 417.959 279.996 417.959 280.492 418.455L288.419 423.164C289.163 423.66 288.915 424.156 288.172 424.652L280.244 429.361C279.501 429.857 278.262 429.857 277.767 429.361Z" fill="#24126A"></path> <path opacity="0.8" d="M290.154 436.55L282.226 431.84C281.483 431.344 281.731 430.849 282.474 430.353L290.401 425.643C291.144 425.147 292.383 425.147 292.879 425.643L300.806 430.353C301.549 430.601 301.302 431.344 300.558 431.84L292.631 436.55C291.888 436.798 290.649 437.046 290.154 436.55Z" fill="#24126A"></path> <path opacity="0.8" d="M302.54 443.739L294.613 439.029C293.87 438.533 294.117 438.037 294.861 437.542L302.788 432.832C303.531 432.336 304.77 432.336 305.265 432.832L313.193 437.542C313.936 438.037 313.688 438.533 312.945 439.029L305.018 443.739C304.274 443.986 303.036 443.986 302.54 443.739Z" fill="#24126A"></path> <path opacity="0.8" d="M314.927 450.927L307 446.218C306.256 445.97 306.504 445.226 307.247 444.73L315.175 440.021C315.918 439.525 317.157 439.525 317.652 440.021L325.579 444.73C326.323 445.226 326.075 445.722 325.332 446.218L317.404 450.927C316.661 451.175 315.422 451.175 314.927 450.927Z" fill="#24126A"></path> <path opacity="0.8" d="M327.314 458.116L319.386 453.406C318.643 453.158 318.891 452.415 319.634 451.919L327.561 447.209C328.305 446.713 329.543 446.713 330.039 447.209L337.966 451.919C338.709 452.167 338.462 452.91 337.718 453.406L329.791 458.116C329.048 458.364 327.809 458.364 327.314 458.116Z" fill="#24126A"></path> <path opacity="0.8" d="M339.7 465.304L331.773 460.594C331.03 460.099 331.278 459.603 332.021 459.107L339.948 454.397C340.691 453.902 341.93 453.902 342.425 454.397L350.353 459.107C351.096 459.355 350.848 460.099 350.105 460.594L342.178 465.304C341.435 465.552 340.196 465.552 339.7 465.304Z" fill="#24126A"></path> <path opacity="0.8" d="M352.087 472.245L344.16 467.535C343.416 467.288 343.664 466.544 344.407 466.048L352.335 461.338C353.078 460.843 354.317 460.843 354.812 461.338L362.74 466.048C363.483 466.544 363.235 467.04 362.492 467.535L354.564 472.245C353.821 472.741 352.583 472.741 352.087 472.245Z" fill="#24126A"></path> <path opacity="0.8" d="M374.135 485.135L356.546 474.972C355.803 474.476 356.051 473.98 356.794 473.485L364.722 468.775C365.465 468.279 366.703 468.279 367.199 468.775L384.788 478.938C385.531 479.434 385.283 479.929 384.54 480.425L376.613 485.135C375.87 485.383 374.631 485.383 374.135 485.135Z" fill="#24126A"></path> <path opacity="0.8" d="M398.164 471.254L383.3 462.825C382.557 462.33 382.805 461.834 383.548 461.338L391.475 456.628C392.219 456.133 393.457 456.133 393.953 456.628L408.817 465.056C409.56 465.304 409.312 466.048 408.569 466.544L400.642 471.254C399.898 471.501 398.66 471.501 398.164 471.254Z" fill="#24126A"></path> <path opacity="0.8" d="M274.546 413.745L266.619 409.035C265.875 408.539 266.123 408.044 266.866 407.548L274.794 402.838C275.537 402.342 276.776 402.342 277.271 402.838L285.199 407.548C285.942 407.796 285.694 408.539 284.951 409.035L277.023 413.745C276.528 413.993 275.289 413.993 274.546 413.745Z" fill="#24126A"></path> <path opacity="0.8" d="M261.911 406.308L253.984 401.599C253.241 401.103 253.488 400.607 254.232 400.111L262.159 395.402C262.902 394.906 264.141 394.906 264.636 395.402L272.564 400.111C273.307 400.359 273.059 401.103 272.316 401.599L264.389 406.308C263.645 406.804 262.655 406.804 261.911 406.308Z" fill="#24126A"></path> <path opacity="0.8" d="M249.279 399.12L241.351 394.41C240.608 394.162 240.856 393.419 241.599 392.923L249.526 388.213C250.269 387.717 251.508 387.717 252.004 388.213L259.931 392.923C260.674 393.419 260.427 393.914 259.683 394.41L251.756 399.12C251.013 399.368 250.022 399.368 249.279 399.12Z" fill="#24126A"></path> <path opacity="0.8" d="M236.642 391.683L228.714 386.974C227.971 386.478 228.219 385.982 228.962 385.486L236.89 380.777C237.633 380.281 238.871 380.281 239.367 380.777L247.294 385.486C248.038 385.982 247.79 386.478 247.047 386.974L239.119 391.683C238.376 392.179 237.137 392.179 236.642 391.683Z" fill="#24126A"></path> <path opacity="0.8" d="M286.933 420.934L279.005 416.224C278.262 415.728 278.51 415.232 279.253 414.736L287.181 410.027C287.924 409.531 289.162 409.531 289.658 410.027L297.585 414.736C298.329 415.232 298.081 415.728 297.338 416.224L289.41 420.934C288.915 421.181 287.676 421.181 286.933 420.934Z" fill="#24126A"></path> <path opacity="0.8" d="M299.32 428.122L291.392 423.412C290.649 422.916 290.897 422.421 291.64 421.925L299.567 417.215C300.31 416.719 301.549 416.719 302.045 417.215L309.972 421.925C310.715 422.421 310.468 422.916 309.724 423.412L301.797 428.122C301.054 428.37 300.063 428.37 299.32 428.122Z" fill="#24126A"></path> <path opacity="0.8" d="M311.706 435.063L303.779 430.353C303.036 430.105 303.283 429.361 304.027 428.866L311.954 424.156C312.697 423.66 313.936 423.66 314.431 424.156L322.359 428.866C323.102 429.361 322.854 429.857 322.111 430.353L314.184 435.063C313.44 435.559 312.449 435.559 311.706 435.063Z" fill="#24126A"></path> <path opacity="0.8" d="M324.093 442.251L316.166 437.542C315.422 437.294 315.67 436.55 316.413 436.054L324.341 431.345C325.084 430.849 326.323 430.849 326.818 431.345L334.746 436.054C335.489 436.302 335.241 437.046 334.498 437.542L326.57 442.251C325.827 442.747 324.836 442.747 324.093 442.251Z" fill="#24126A"></path> <path opacity="0.8" d="M336.48 449.44L328.552 444.73C327.809 444.234 328.057 443.739 328.8 443.243L336.727 438.533C337.471 438.037 338.709 438.037 339.205 438.533L347.132 443.243C347.875 443.491 347.628 444.234 346.884 444.73L338.957 449.44C338.214 449.936 337.223 449.936 336.48 449.44Z" fill="#24126A"></path> <path opacity="0.8" d="M348.866 456.629L340.939 451.919C340.196 451.671 340.443 450.927 341.187 450.431L349.114 445.722C349.857 445.226 351.096 445.226 351.591 445.722L359.519 450.431C360.262 450.927 360.014 451.423 359.271 451.919L351.344 456.629C350.601 456.876 349.61 457.124 348.866 456.629Z" fill="#24126A"></path> <path opacity="0.8" d="M361.253 463.817L353.326 459.107C352.583 458.859 352.83 458.116 353.573 457.62L361.501 452.91C362.244 452.414 363.483 452.414 363.978 452.91L371.906 457.62C372.649 457.868 372.401 458.611 371.658 459.107L363.73 463.817C362.987 464.065 361.996 464.065 361.253 463.817Z" fill="#24126A"></path> <path opacity="0.8" d="M373.638 471.006L365.71 466.296C364.967 465.8 365.215 465.304 365.958 464.809L373.886 460.099C374.629 459.603 375.867 459.603 376.363 460.099L384.29 464.809C385.034 465.057 384.786 465.8 384.043 466.296L376.115 471.006C375.372 471.254 374.381 471.254 373.638 471.006Z" fill="#24126A"></path> <path opacity="0.8" d="M386.025 478.194L378.097 473.484C377.354 473.237 377.602 472.493 378.345 471.997L386.272 467.287C387.016 466.792 388.254 466.792 388.75 467.287L396.677 471.997C397.42 472.493 397.173 472.989 396.429 473.484L388.502 478.194C387.759 478.442 386.768 478.442 386.025 478.194Z" fill="#24126A"></path> <path opacity="0.8" d="M268.105 396.145L260.177 391.436C259.434 390.94 259.682 390.444 260.425 389.948L268.352 385.239C269.096 384.743 270.334 384.743 270.83 385.239L278.757 389.948C279.5 390.444 279.253 390.94 278.509 391.436L270.582 396.145C269.839 396.393 268.848 396.393 268.105 396.145Z" fill="#24126A"></path> <path opacity="0.8" d="M255.718 388.957L247.791 384.247C247.047 383.999 247.295 383.256 248.038 382.76L255.966 378.05C256.709 377.554 257.948 377.554 258.443 378.05L266.37 382.76C267.114 383.008 266.866 383.751 266.123 384.247L258.195 388.957C257.452 389.205 256.461 389.205 255.718 388.957Z" fill="#24126A"></path> <path opacity="0.8" d="M243.579 381.768L235.652 377.058C234.909 376.81 235.156 376.067 235.9 375.571L243.827 370.861C244.57 370.366 245.809 370.366 246.304 370.861L254.232 375.571C254.975 376.067 254.727 376.563 253.984 377.058L246.057 381.768C245.313 382.016 244.075 382.264 243.579 381.768Z" fill="#24126A"></path> <path opacity="0.8" d="M231.193 374.58L223.265 369.87C222.522 369.374 222.77 368.878 223.513 368.383L231.44 363.673C232.184 363.177 233.422 363.177 233.918 363.673L241.845 368.383C242.588 368.878 242.341 369.374 241.597 369.87L233.67 374.58C232.927 375.075 231.688 375.075 231.193 374.58Z" fill="#24126A"></path> <path opacity="0.8" d="M243.825 367.391L235.898 362.681C235.155 362.185 235.403 361.69 236.146 361.194L238.871 359.707C239.614 359.211 240.853 359.211 241.348 359.707L249.276 364.416C250.019 364.664 249.771 365.408 249.028 365.904L246.303 367.391C245.56 367.639 244.569 367.639 243.825 367.391Z" fill="#24126A"></path> <path opacity="0.8" d="M259.929 376.563L252.001 371.853C251.258 371.605 251.506 370.861 252.249 370.365L254.974 368.878C255.717 368.382 256.956 368.382 257.452 368.878L265.379 373.588C266.122 374.084 265.875 374.579 265.131 375.075L262.406 376.563C261.663 377.058 260.672 377.058 259.929 376.563Z" fill="#24126A"></path> <path opacity="0.8" d="M272.068 383.751L264.14 379.041C263.397 378.794 263.645 378.05 264.388 377.554L267.113 376.067C267.856 375.571 269.095 375.571 269.59 376.067L277.518 380.777C278.261 381.272 278.013 381.768 277.27 382.264L274.545 383.751C274.049 383.999 272.811 383.999 272.068 383.751Z" fill="#24126A"></path> <path opacity="0.8" d="M284.454 390.94L276.527 386.23C275.784 385.734 276.031 385.238 276.775 384.743L279.5 383.255C280.243 382.76 281.482 382.76 281.977 383.255L289.904 387.965C290.648 388.213 290.4 388.957 289.657 389.452L286.932 390.94C286.188 391.188 285.198 391.188 284.454 390.94Z" fill="#24126A"></path> <path opacity="0.8" d="M296.595 397.881L288.667 393.171C287.924 392.675 288.172 392.179 288.915 391.684L291.64 390.196C292.383 389.701 293.622 389.701 294.118 390.196L302.045 394.906C302.788 395.154 302.541 395.898 301.797 396.393L299.072 397.881C298.577 398.128 297.338 398.376 296.595 397.881Z" fill="#24126A"></path> <path opacity="0.8" d="M365.216 437.542L357.289 432.832C356.545 432.584 356.793 431.84 357.536 431.345L360.261 429.857C361.005 429.362 362.243 429.362 362.739 429.857L370.666 434.567C371.409 435.063 371.162 435.559 370.418 436.054L367.693 437.542C366.95 437.79 365.959 437.79 365.216 437.542Z" fill="#24126A"></path> <path opacity="0.8" d="M377.355 444.482L369.427 439.772C368.684 439.277 368.932 438.781 369.675 438.285L372.4 436.798C373.143 436.302 374.382 436.302 374.877 436.798L382.805 441.508C383.548 442.003 383.3 442.499 382.557 442.995L379.832 444.482C379.337 444.978 378.098 444.978 377.355 444.482Z" fill="#24126A"></path> <path opacity="0.8" d="M389.741 451.671L381.814 446.961C381.071 446.713 381.318 445.97 382.062 445.474L384.787 443.987C385.53 443.491 386.769 443.491 387.264 443.987L395.192 448.696C395.935 449.192 395.687 449.688 394.944 450.184L392.219 451.671C391.476 451.919 390.485 451.919 389.741 451.671Z" fill="#24126A"></path> <path opacity="0.8" d="M402.128 458.859L394.201 454.15C393.458 453.902 393.705 453.158 394.448 452.662L397.173 451.175C397.917 450.679 399.155 450.679 399.651 451.175L407.578 455.885C408.321 456.381 408.074 456.876 407.33 457.372L404.605 458.859C403.862 459.107 402.624 459.107 402.128 458.859Z" fill="#24126A"></path> <path opacity="0.8" d="M280.491 403.086L272.564 398.376C271.821 397.88 272.069 397.385 272.812 396.889L280.739 392.179C281.482 391.683 282.721 391.683 283.216 392.179L291.144 396.889C291.887 397.137 291.639 397.88 290.896 398.376L282.969 403.086C282.226 403.582 281.235 403.582 280.491 403.086Z" fill="#24126A"></path> <path opacity="0.8" d="M292.878 410.275L284.951 405.565C284.207 405.317 284.455 404.573 285.198 404.077L293.126 399.368C293.869 398.872 295.108 398.872 295.603 399.368L303.531 404.077C304.274 404.573 304.026 405.069 303.283 405.565L295.355 410.275C294.612 410.77 293.621 410.77 292.878 410.275Z" fill="#24126A"></path> <path opacity="0.8" d="M305.265 417.463L297.337 412.753C296.594 412.506 296.842 411.762 297.585 411.266L305.513 406.556C306.256 406.061 307.494 406.061 307.99 406.556L315.917 411.266C316.661 411.514 316.413 412.258 315.67 412.753L307.742 417.463C306.999 417.711 306.008 417.959 305.265 417.463Z" fill="#24126A"></path> <path opacity="0.8" d="M317.652 424.652L309.724 419.942C308.981 419.446 309.229 418.951 309.972 418.455L317.899 413.745C318.642 413.249 319.881 413.249 320.377 413.745L328.304 418.455C329.047 418.703 328.799 419.446 328.056 419.942L320.129 424.652C319.386 424.9 318.395 424.9 317.652 424.652Z" fill="#24126A"></path> <path opacity="0.8" d="M330.038 431.84L322.111 427.131C321.368 426.635 321.615 426.139 322.359 425.643L330.286 420.933C331.029 420.438 332.268 420.438 332.763 420.933L340.691 425.643C341.434 426.139 341.186 426.635 340.443 427.131L332.516 431.84C331.772 432.088 330.781 432.088 330.038 431.84Z" fill="#24126A"></path> <path opacity="0.8" d="M342.425 439.029L334.498 434.319C333.754 434.071 334.002 433.328 334.745 432.832L342.673 428.122C343.416 427.626 344.655 427.626 345.15 428.122L353.077 432.832C353.821 433.328 353.573 433.823 352.83 434.319L344.902 439.029C344.159 439.277 343.168 439.277 342.425 439.029Z" fill="#24126A"></path> <path opacity="0.8" d="M354.812 446.217L346.884 441.508C346.141 441.012 346.389 440.516 347.132 440.02L355.059 435.311C355.803 434.815 357.041 434.815 357.537 435.311L365.464 440.02C366.207 440.268 365.96 441.012 365.216 441.508L357.289 446.217C356.546 446.465 355.555 446.465 354.812 446.217Z" fill="#24126A"></path> <path opacity="0.8" d="M367.198 453.158L359.271 448.449C358.528 447.953 358.776 447.457 359.519 446.961L367.446 442.251C368.189 441.756 369.428 441.756 369.923 442.251L377.851 446.961C378.594 447.457 378.346 447.953 377.603 448.449L369.676 453.158C368.933 453.654 367.942 453.654 367.198 453.158Z" fill="#24126A"></path> <path opacity="0.8" d="M379.585 460.347L371.658 455.637C370.915 455.141 371.162 454.645 371.905 454.15L379.833 449.44C380.576 448.944 381.815 448.944 382.31 449.44L390.238 454.15C390.981 454.645 390.733 455.141 389.99 455.637L382.062 460.347C381.319 460.842 380.081 460.842 379.585 460.347Z" fill="#24126A"></path> <path opacity="0.8" d="M209.64 404.078L186.105 390.444C185.362 389.948 185.61 389.453 186.353 388.957L194.28 384.247C195.023 383.751 196.262 383.751 196.757 384.247L220.292 397.881C221.035 398.376 220.788 398.872 220.044 399.368L212.117 404.078C211.374 404.326 210.383 404.326 209.64 404.078Z" fill="#24126A"></path> <path opacity="0.8" d="M361.749 491.828L338.214 478.194C337.471 477.699 337.719 477.203 338.462 476.707L346.39 471.997C347.133 471.502 348.371 471.502 348.867 471.997L372.401 485.631C373.145 486.127 372.897 486.622 372.154 487.118L364.226 491.828C363.483 492.324 362.492 492.324 361.749 491.828Z" fill="#24126A"></path> <path opacity="0.8" d="M312.2 479.186L304.273 474.476C303.53 473.98 303.777 473.485 304.521 472.989L313.935 467.535C314.678 467.04 315.916 467.04 316.412 467.535L324.339 472.245C325.083 472.741 324.835 473.237 324.092 473.732L314.678 479.186C314.182 479.434 312.944 479.434 312.2 479.186Z" fill="#24126A"></path> <path opacity="0.8" d="M222.274 427.131L209.392 419.694C208.649 419.446 208.897 418.703 209.64 418.207L219.054 412.753C219.797 412.258 221.036 412.258 221.531 412.753L234.413 420.19C235.156 420.686 234.909 421.181 234.165 421.677L224.751 427.131C224.256 427.626 223.017 427.626 222.274 427.131Z" fill="#24126A"></path> <path opacity="0.8" d="M300.311 472.245L287.429 464.809C286.686 464.313 286.934 463.817 287.677 463.321L297.091 457.868C297.834 457.372 299.073 457.372 299.568 457.868L312.45 465.304C313.193 465.8 312.946 466.296 312.202 466.792L302.789 472.245C302.045 472.493 301.054 472.741 300.311 472.245Z" fill="#24126A"></path> <path opacity="0.8" d="M240.358 437.542L227.476 430.105C226.733 429.857 226.981 429.114 227.724 428.618L237.138 423.164C237.881 422.669 239.12 422.669 239.615 423.164L252.497 430.601C253.24 431.097 252.993 431.592 252.249 432.088L242.836 437.542C242.092 437.789 240.854 437.789 240.358 437.542Z" fill="#24126A"></path> <path opacity="0.8" d="M239.615 423.164L295.355 455.389C296.098 455.885 296.098 456.381 295.355 456.876L285.694 462.33C284.951 462.826 283.96 462.826 283.216 462.33L227.477 430.105L239.615 423.164Z" fill="#24126A"></path> <path opacity="0.8" d="M346.882 492.076L355.801 497.281C356.296 497.529 356.296 498.025 355.553 498.521L351.589 500.751C351.094 500.999 350.103 501.247 349.607 500.751L340.689 495.546C340.194 495.298 340.194 494.802 340.937 494.307L344.9 492.076C345.396 491.828 346.387 491.828 346.882 492.076Z" fill="#24126A"></path> <path opacity="0.8" d="M334.496 484.887L343.414 490.092C343.91 490.34 343.909 490.836 343.166 491.332L339.203 493.563C338.707 493.811 337.716 494.059 337.221 493.563L328.302 488.357C327.807 488.109 327.807 487.614 328.55 487.118L332.514 484.887C333.009 484.639 334 484.639 334.496 484.887Z" fill="#24126A"></path> <path opacity="0.8" d="M322.111 477.698L331.029 482.904C331.525 483.152 331.525 483.648 330.781 484.143L326.818 486.374C326.322 486.622 325.331 486.87 324.836 486.374L315.918 481.169C315.422 480.921 315.422 480.425 316.165 479.929L320.129 477.698C320.624 477.45 321.615 477.45 322.111 477.698Z" fill="#24126A"></path> <path opacity="0.8" d="M341.187 480.921L350.105 486.126C350.601 486.374 350.601 486.87 349.858 487.366L345.894 489.597C345.399 489.845 344.408 490.093 343.912 489.597L334.994 484.391C334.498 484.143 334.498 483.648 335.241 483.152L339.205 480.921C339.701 480.673 340.692 480.673 341.187 480.921Z" fill="#24126A"></path> </g> <path d="M467.529 288.069C467.034 288.069 466.291 287.821 465.548 287.573C463.566 286.333 462.575 284.103 462.823 282.119C463.07 281.128 463.566 280.384 464.309 280.136C465.3 279.641 466.291 279.889 467.282 280.384C469.264 281.376 470.255 283.855 470.007 285.838C469.759 286.829 469.264 287.573 468.52 287.821C468.273 288.069 468.025 288.069 467.529 288.069ZM465.795 280.88C465.548 280.88 465.3 280.88 465.052 281.128C464.557 281.376 464.061 281.872 464.061 282.615C463.566 284.35 464.804 286.333 466.291 287.325C467.034 287.821 467.777 287.821 468.52 287.573C469.016 287.325 469.511 286.829 469.511 286.086C470.007 284.35 469.016 282.367 467.282 281.376C466.786 280.88 466.291 280.88 465.795 280.88Z" fill="#42E8E0"></path> <path d="M477.686 294.018C477.19 294.018 476.447 293.77 475.704 293.522C473.722 292.531 472.731 290.052 472.979 288.069C473.227 287.077 473.722 286.334 474.465 286.086C475.456 285.59 476.447 285.838 477.438 286.334C479.42 287.325 480.411 289.804 480.163 291.787C479.915 292.778 479.42 293.522 478.677 293.77C478.677 294.018 478.181 294.018 477.686 294.018ZM475.952 286.581C475.704 286.581 475.456 286.581 475.208 286.829C474.713 287.077 474.217 287.573 474.217 288.317C473.722 290.052 474.961 292.035 476.447 293.026C477.19 293.522 477.933 293.522 478.677 293.274C479.172 293.026 479.668 292.531 479.668 291.787C480.163 290.052 479.172 288.069 477.438 287.077C476.943 286.829 476.447 286.581 475.952 286.581Z" fill="#42E8E0"></path> <path d="M490.32 297.736C489.825 299.471 488.091 300.215 486.357 299.223C484.623 298.232 483.632 296.001 483.879 294.266C484.375 292.531 486.109 291.787 487.843 292.778C489.577 293.522 490.568 296.001 490.32 297.736Z" fill="#42E8E0"></path> <path d="M294.612 184.95L289.162 181.727L289.41 179.249L294.86 182.471L294.612 184.95Z" fill="#42E8E0"></path> <path d="M302.538 189.412L297.088 186.437L297.336 183.958L302.786 186.933L302.538 189.412Z" fill="#42E8E0"></path> <path d="M286.684 180.488L274.793 173.547L275.041 171.068L287.18 177.761L286.684 180.488Z" fill="#42E8E0"></path> <path d="M386.029 723.845C381.817 723.845 377.853 722.854 374.633 721.119L177.685 607.341C174.465 605.606 172.979 603.127 172.979 600.648C172.979 598.169 174.713 595.69 177.685 593.955L219.305 569.911L219.8 570.654L178.181 594.699C175.456 596.434 173.722 598.417 173.722 600.648C173.722 602.879 175.208 605.11 178.181 606.597L375.128 720.375C381.074 723.845 390.983 723.845 396.929 720.375L541.109 637.334L541.605 638.078L397.424 721.119C394.204 723.102 390.24 723.845 386.029 723.845Z" fill="#42E8E0"></path> <path d="M287.181 205.276L274.051 197.592L274.546 194.617L287.676 202.301L287.181 205.276Z" fill="#42E8E0"></path> <path d="M298.33 211.721L291.889 208.003L292.384 204.78L298.825 208.746L298.33 211.721Z" fill="#42E8E0"></path> <path d="M289.909 214.448L284.211 211.225L284.706 208.251L290.404 211.473L289.909 214.448Z" fill="#42E8E0"></path> <path d="M299.072 219.901L292.631 216.183L293.126 213.208L299.567 216.926L299.072 219.901Z" fill="#42E8E0"></path> <path d="M308.735 233.287L283.219 218.414L283.714 215.439L309.231 230.312L308.735 233.287Z" fill="#42E8E0"></path> <path d="M286.438 292.531L260.922 277.658L261.417 274.683L286.934 289.556L286.438 292.531Z" fill="#42E8E0"></path> <path d="M296.347 298.232L289.906 294.514L290.402 291.291L296.843 295.257L296.347 298.232Z" fill="#42E8E0"></path> <path d="M287.431 228.577L281.98 225.602L282.476 222.38L287.926 225.602L287.431 228.577Z" fill="#42E8E0"></path> <path d="M296.845 234.03L290.404 230.312L290.9 227.337L297.341 231.056L296.845 234.03Z" fill="#42E8E0"></path> <path d="M294.863 240.723L280.742 232.543L281.238 229.568L295.358 237.748L294.863 240.723Z" fill="#42E8E0"></path> <path d="M304.277 246.176L297.836 242.458L298.331 239.484L304.772 243.202L304.277 246.176Z" fill="#42E8E0"></path> <path d="M313.689 251.63L307.248 247.912L307.744 244.937L314.185 248.655L313.689 251.63Z" fill="#42E8E0"></path> <path d="M329.049 260.554L316.662 253.365L317.158 250.391L329.544 257.579L329.049 260.554Z" fill="#42E8E0"></path> <path d="M319.388 270.469L312.699 266.503L313.195 263.528L319.883 267.247L319.388 270.469Z" fill="#42E8E0"></path> <path d="M334.498 279.145L322.359 271.956L322.855 268.982L334.994 276.17L334.498 279.145Z" fill="#42E8E0"></path> <path d="M284.952 250.391L278.264 246.672L279.007 243.698L285.448 247.416L284.952 250.391Z" fill="#42E8E0"></path> <path d="M294.367 255.844L287.926 252.126L288.421 249.151L294.862 252.869L294.367 255.844Z" fill="#42E8E0"></path> <path d="M309.725 264.768L297.338 257.579L297.833 254.604L310.22 261.793L309.725 264.768Z" fill="#42E8E0"></path> <path d="M329.791 268.734L323.35 264.768L323.845 261.793L330.286 265.511L329.791 268.734Z" fill="#42E8E0"></path> <path d="M339.207 274.187L332.766 270.469L333.261 267.247L339.702 271.213L339.207 274.187Z" fill="#42E8E0"></path> <path d="M354.564 282.863L342.178 275.922L342.673 272.7L355.06 279.889L354.564 282.863Z" fill="#42E8E0"></path> <path d="M306.504 304.181L300.062 300.215L300.558 297.24L306.999 300.958L306.504 304.181Z" fill="#42E8E0"></path> <path d="M321.865 312.857L309.479 305.668L309.974 302.694L322.361 309.882L321.865 312.857Z" fill="#42E8E0"></path> <path d="M282.474 264.52L276.033 260.802L276.529 257.827L282.97 261.545L282.474 264.52Z" fill="#42E8E0"></path> <path d="M297.836 273.443L285.449 266.255L285.945 263.28L298.331 270.469L297.836 273.443Z" fill="#42E8E0"></path> <path d="M313.689 315.831L307.248 312.113L307.744 309.138L314.185 312.857L313.689 315.831Z" fill="#42E8E0"></path> <path d="M329.049 324.755L316.662 317.567L317.158 314.592L329.544 321.781L329.049 324.755Z" fill="#42E8E0"></path> <path d="M328.306 244.441L321.865 240.723L322.361 237.749L328.802 241.467L328.306 244.441Z" fill="#42E8E0"></path> <path d="M318.396 238.74L311.955 235.022L312.451 232.047L318.892 235.765L318.396 238.74Z" fill="#42E8E0"></path> <path d="M343.666 253.365L331.279 246.176L331.775 243.202L344.161 250.39L343.666 253.365Z" fill="#42E8E0"></path> <path d="M285.448 242.954L279.502 239.732L279.997 236.509L285.943 239.98L285.448 242.954Z" fill="#42E8E0"></path> <path d="M302.789 253.117L288.668 244.937L289.163 241.963L303.532 250.143L302.789 253.117Z" fill="#42E8E0"></path> <path d="M320.378 263.28L306.01 254.852L306.505 251.878L320.874 260.306L320.378 263.28Z" fill="#42E8E0"></path> <path d="M352.582 258.571L346.637 255.1L347.38 252.126L353.078 255.596L352.582 258.571Z" fill="#42E8E0"></path> <path d="M370.171 268.734L355.803 260.306L356.298 257.331L370.667 265.759L370.171 268.734Z" fill="#42E8E0"></path> <path d="M387.513 278.649L373.145 270.469L373.64 267.494L388.008 275.674L387.513 278.649Z" fill="#42E8E0"></path> <path d="M291.642 262.041L277.273 253.861L277.769 250.886L292.137 259.066L291.642 262.041Z" fill="#42E8E0"></path> <path d="M299.073 266.503L294.861 264.024L295.357 261.05L299.568 263.528L299.073 266.503Z" fill="#42E8E0"></path> <path d="M306.752 270.965L302.293 268.238L302.788 265.263L307.248 267.742L306.752 270.965Z" fill="#42E8E0"></path> <path d="M320.625 278.897L309.973 272.7L310.468 269.725L321.121 275.922L320.625 278.897Z" fill="#42E8E0"></path> <path d="M336.481 264.768L332.021 262.041L332.517 259.066L336.976 261.793L336.481 264.768Z" fill="#42E8E0"></path> <path d="M350.353 272.7L339.453 266.503L339.949 263.528L350.849 269.725L350.353 272.7Z" fill="#42E8E0"></path> <path d="M353.328 274.435L342.428 268.238L342.923 265.263L353.823 271.46L353.328 274.435Z" fill="#42E8E0"></path> <path d="M295.605 313.353L281.732 305.173L282.228 302.198L296.349 310.378L295.605 313.353Z" fill="#42E8E0"></path> <path d="M305.265 318.806L298.576 315.088L299.072 311.865L305.76 315.831L305.265 318.806Z" fill="#42E8E0"></path> <path d="M314.679 324.259L308.238 320.541L308.734 317.567L315.175 321.285L314.679 324.259Z" fill="#42E8E0"></path> <path d="M330.041 333.183L317.654 325.995L318.15 323.02L330.536 329.961L330.041 333.183Z" fill="#42E8E0"></path> <path d="M339.701 338.637L333.26 334.918L333.755 331.944L340.196 335.662L339.701 338.637Z" fill="#42E8E0"></path> <path d="M355.06 347.56L342.674 340.372L343.169 337.397L355.556 344.586L355.06 347.56Z" fill="#42E8E0"></path> <path d="M307.992 335.91L301.551 332.192L302.046 329.217L308.487 332.935L307.992 335.91Z" fill="#42E8E0"></path> <path d="M323.35 344.834L310.963 337.645L311.458 334.67L323.845 341.859L323.35 344.834Z" fill="#42E8E0"></path> <path d="M274.05 316.327L267.609 312.609L268.105 309.386L274.546 313.353L274.05 316.327Z" fill="#42E8E0"></path> <path d="M283.466 321.78L277.025 318.062L277.521 315.088L283.962 318.806L283.466 321.78Z" fill="#42E8E0"></path> <path d="M298.824 330.704L286.438 323.516L286.933 320.541L299.32 327.482L298.824 330.704Z" fill="#42E8E0"></path> <path d="M286.44 315.583L280.494 312.361L280.99 309.138L286.935 312.609L286.44 315.583Z" fill="#42E8E0"></path> <path d="M303.781 325.747L289.412 317.567L289.908 314.344L304.276 322.772L303.781 325.747Z" fill="#42E8E0"></path> <path d="M321.368 335.91L307 327.482L307.495 324.507L321.864 332.687L321.368 335.91Z" fill="#42E8E0"></path> <path d="M269.097 321.285L254.977 313.105L255.472 309.882L269.593 318.31L269.097 321.285Z" fill="#42E8E0"></path> <path d="M276.778 325.747L272.318 323.02L272.814 320.045L277.273 322.524L276.778 325.747Z" fill="#42E8E0"></path> <path d="M284.208 329.961L279.996 327.482L280.492 324.507L284.703 326.986L284.208 329.961Z" fill="#42E8E0"></path> <path d="M298.33 338.141L287.43 331.944L287.925 328.721L298.825 335.166L298.33 338.141Z" fill="#42E8E0"></path> <path d="M301.305 339.876L290.404 333.431L290.9 330.457L301.8 336.654L301.305 339.876Z" fill="#42E8E0"></path> <path d="M275.538 294.018L271.326 291.291L271.822 288.317L276.033 291.043L275.538 294.018Z" fill="#42E8E0"></path> <path d="M289.658 301.95L278.758 295.753L279.253 292.778L290.154 298.975L289.658 301.95Z" fill="#42E8E0"></path> <path d="M303.781 310.378L293.129 303.933L293.624 300.958L304.525 307.156L303.781 310.378Z" fill="#42E8E0"></path> <path d="M359.025 357.476L352.336 353.757L352.831 350.783L359.52 354.501L359.025 357.476Z" fill="#42E8E0"></path> <path d="M374.135 366.399L361.996 359.211L362.492 356.236L374.63 363.425L374.135 366.399Z" fill="#42E8E0"></path> <path d="M334.746 343.594L324.094 337.397L324.589 334.423L335.242 340.62L334.746 343.594Z" fill="#42E8E0"></path> <path d="M349.115 352.022L338.215 345.577L338.71 342.603L349.611 348.8L349.115 352.022Z" fill="#42E8E0"></path> <path d="M268.106 264.024L263.646 261.545L264.142 258.571L268.601 261.05L268.106 264.024Z" fill="#42E8E0"></path> <path d="M281.98 272.204L271.08 265.759L271.576 262.785L282.476 268.982L281.98 272.204Z" fill="#42E8E0"></path> <path d="M296.349 280.384L285.449 274.187L285.945 270.965L296.845 277.41L296.349 280.384Z" fill="#42E8E0"></path> <path d="M463.071 358.963C462.327 358.963 461.584 358.715 460.841 358.467L401.137 324.011C398.66 322.524 397.174 319.054 397.669 316.079L401.385 293.274C401.633 291.787 402.376 290.547 403.615 289.804C404.606 289.308 405.844 289.308 407.083 290.052L467.034 324.259C469.512 325.747 470.998 329.217 470.503 332.192L466.787 354.997C466.539 356.484 465.796 357.723 464.557 358.467C464.062 358.715 463.566 358.963 463.071 358.963ZM405.101 290.3C404.853 290.3 404.358 290.3 404.11 290.547C403.367 291.043 402.624 291.787 402.376 293.026L398.66 315.831C398.165 318.558 399.651 321.533 401.633 322.772L461.336 357.228C462.327 357.723 463.071 357.723 463.814 357.476C464.557 356.98 465.3 356.236 465.548 354.997L469.264 332.192C469.759 329.465 468.273 326.49 466.291 325.251L406.588 290.795C406.34 290.3 405.597 290.3 405.101 290.3Z" fill="#42E8E0"></path> <path d="M456.631 398.128C455.888 398.128 455.145 397.881 454.402 397.633L394.698 363.177C392.221 361.69 390.734 358.219 391.23 355.245L394.946 332.44C395.193 330.952 395.937 329.713 397.175 328.969C398.166 328.474 399.405 328.474 400.644 329.217L460.347 363.673C462.824 365.16 464.311 368.63 463.815 371.605L460.099 394.41C459.852 395.897 459.108 397.137 457.87 397.88C457.622 398.128 457.127 398.128 456.631 398.128ZM398.662 329.465C398.414 329.465 397.918 329.465 397.671 329.713C396.928 330.209 396.184 330.952 395.937 332.192L392.221 354.997C391.725 357.724 393.212 360.698 395.193 361.938L454.897 396.393C455.888 396.889 456.631 396.889 457.374 396.641C458.118 396.145 458.861 395.402 459.108 394.162L462.824 371.357C463.32 368.63 461.834 365.656 459.852 364.416L400.148 329.961C399.653 329.713 399.157 329.465 398.662 329.465Z" fill="#42E8E0"></path> <path opacity="0.5" d="M406.588 321.285C407.579 321.781 408.57 321.781 408.817 320.789L415.754 301.702C416.497 299.471 419.718 301.454 420.461 304.677L424.672 323.764C424.92 325.251 425.911 326.49 427.15 327.234L428.141 327.73C429.132 328.226 430.122 328.226 430.37 327.234L431.857 324.259C432.848 322.276 435.573 324.259 436.564 326.986C436.811 328.226 437.802 329.465 438.793 330.209L439.784 330.704C440.775 331.448 441.766 330.952 442.261 329.961L443.5 325.995C444.243 323.764 447.464 325.499 448.207 328.721L452.418 346.569C452.666 348.056 453.657 349.296 454.896 350.039L406.588 321.285Z" fill="url(#paint10_linear)"></path> <path d="M447.464 389.205C446.226 388.461 445.235 386.974 444.739 385.486L440.528 367.639C440.032 365.656 438.546 364.416 437.555 364.416C437.307 364.416 437.06 364.416 436.812 365.16L435.573 369.126C435.326 369.622 435.078 370.118 434.582 370.366C434.087 370.613 433.344 370.365 432.6 370.118L431.61 369.622C430.371 368.878 429.38 367.639 429.132 366.151C428.637 364.416 427.15 363.177 426.159 362.929C425.664 362.929 425.416 362.929 425.416 363.425L423.93 366.399C423.682 366.895 423.434 367.143 422.939 367.391C422.443 367.639 421.7 367.391 420.957 367.143L419.966 366.647C418.727 365.904 417.736 364.416 417.241 362.929L413.03 343.842C412.534 342.107 411.048 340.62 410.057 340.372C409.561 340.372 409.314 340.62 409.314 340.868L402.377 359.954C402.129 360.45 401.882 360.946 401.386 361.194C400.891 361.442 400.147 361.194 399.404 360.946L399.9 359.954C400.395 360.202 400.643 360.202 401.138 360.202C401.386 360.202 401.386 359.954 401.634 359.707L408.57 340.62C408.818 339.876 409.561 339.38 410.305 339.38C411.791 339.38 413.773 341.115 414.268 343.594L418.48 362.681C418.727 363.921 419.718 365.16 420.709 365.904L421.7 366.399C422.196 366.647 422.443 366.647 422.691 366.647C422.939 366.647 422.939 366.399 423.187 366.151L424.673 363.177C424.921 362.433 425.664 361.938 426.407 362.185C427.894 362.433 429.628 363.921 430.123 366.151C430.371 367.391 431.362 368.63 432.105 369.126L433.096 369.622C433.591 369.87 433.839 369.87 434.335 369.87C434.582 369.87 434.83 369.622 434.83 369.374L436.069 365.408C436.316 364.416 437.06 364.168 437.803 364.168C439.289 364.168 441.271 365.904 441.767 368.382L445.978 386.23C446.226 387.469 447.217 388.709 448.208 389.205H447.464Z" fill="#42E8E0"></path> <defs> <linearGradient id="paint0_linear" x1="470.68" y1="491.779" x2="54.1657" y2="491.779" gradientUnits="userSpaceOnUse"> <stop stop-color="#5761D7"></stop> <stop offset="0.1779" stop-color="#5C66D9"></stop> <stop offset="0.3876" stop-color="#6A73DF"></stop> <stop offset="0.6134" stop-color="#8289E8"></stop> <stop offset="0.849" stop-color="#A3A7F5"></stop> <stop offset="1" stop-color="#BCBEFF"></stop> </linearGradient> <linearGradient id="paint1_linear" x1="338.537" y1="482.077" x2="-77.9779" y2="482.077" gradientUnits="userSpaceOnUse"> <stop stop-color="#C0BFF6"></stop> <stop offset="0.2938" stop-color="#C5C4F7"></stop> <stop offset="0.6399" stop-color="#D3D2F9"></stop> <stop offset="1" stop-color="#E9E9FD"></stop> </linearGradient> <linearGradient id="paint2_linear" x1="330.884" y1="215.393" x2="798.879" y2="215.393" gradientUnits="userSpaceOnUse"> <stop stop-color="#42E8E0"></stop> <stop offset="0.1055" stop-color="#37B6BF"></stop> <stop offset="0.2197" stop-color="#2C87A1"></stop> <stop offset="0.338" stop-color="#235F87"></stop> <stop offset="0.4587" stop-color="#1C3F72"></stop> <stop offset="0.5824" stop-color="#162561"></stop> <stop offset="0.7105" stop-color="#121355"></stop> <stop offset="0.8458" stop-color="#10084E"></stop> <stop offset="1" stop-color="#0F054C"></stop> </linearGradient> <linearGradient id="paint3_linear" x1="299.929" y1="232.744" x2="767.924" y2="232.744" gradientUnits="userSpaceOnUse"> <stop stop-color="#42E8E0"></stop> <stop offset="0.1055" stop-color="#37B6BF"></stop> <stop offset="0.2197" stop-color="#2C87A1"></stop> <stop offset="0.338" stop-color="#235F87"></stop> <stop offset="0.4587" stop-color="#1C3F72"></stop> <stop offset="0.5824" stop-color="#162561"></stop> <stop offset="0.7105" stop-color="#121355"></stop> <stop offset="0.8458" stop-color="#10084E"></stop> <stop offset="1" stop-color="#0F054C"></stop> </linearGradient> <linearGradient id="paint4_linear" x1="517.901" y1="299.258" x2="223.144" y2="299.258" gradientUnits="userSpaceOnUse"> <stop stop-color="#C0BFF6"></stop> <stop offset="0.2938" stop-color="#C5C4F7"></stop> <stop offset="0.6399" stop-color="#D3D2F9"></stop> <stop offset="1" stop-color="#E9E9FD"></stop> </linearGradient> <linearGradient id="paint5_linear" x1="517.901" y1="374.895" x2="467.288" y2="374.895" gradientUnits="userSpaceOnUse"> <stop stop-color="#5761D7"></stop> <stop offset="0.1779" stop-color="#5C66D9"></stop> <stop offset="0.3876" stop-color="#6A73DF"></stop> <stop offset="0.6134" stop-color="#8289E8"></stop> <stop offset="0.849" stop-color="#A3A7F5"></stop> <stop offset="1" stop-color="#BCBEFF"></stop> </linearGradient> <linearGradient id="paint6_linear" x1="478.412" y1="457.421" x2="62.1188" y2="457.421" gradientUnits="userSpaceOnUse"> <stop stop-color="#5761D7"></stop> <stop offset="0.1779" stop-color="#5C66D9"></stop> <stop offset="0.3876" stop-color="#6A73DF"></stop> <stop offset="0.6134" stop-color="#8289E8"></stop> <stop offset="0.849" stop-color="#A3A7F5"></stop> <stop offset="1" stop-color="#BCBEFF"></stop> </linearGradient> <linearGradient id="paint7_linear" x1="338.537" y1="446.031" x2="-77.9779" y2="446.031" gradientUnits="userSpaceOnUse"> <stop stop-color="#C0BFF6"></stop> <stop offset="0.2938" stop-color="#C5C4F7"></stop> <stop offset="0.6399" stop-color="#D3D2F9"></stop> <stop offset="1" stop-color="#E9E9FD"></stop> </linearGradient> <linearGradient id="paint8_linear" x1="638.487" y1="365.748" x2="222.194" y2="365.748" gradientUnits="userSpaceOnUse"> <stop stop-color="#5761D7"></stop> <stop offset="0.1779" stop-color="#5C66D9"></stop> <stop offset="0.3876" stop-color="#6A73DF"></stop> <stop offset="0.6134" stop-color="#8289E8"></stop> <stop offset="0.849" stop-color="#A3A7F5"></stop> <stop offset="1" stop-color="#BCBEFF"></stop> </linearGradient> <linearGradient id="paint9_linear" x1="498.612" y1="354.359" x2="82.0971" y2="354.359" gradientUnits="userSpaceOnUse"> <stop stop-color="#C0BFF6"></stop> <stop offset="0.2938" stop-color="#C5C4F7"></stop> <stop offset="0.6399" stop-color="#D3D2F9"></stop> <stop offset="1" stop-color="#E9E9FD"></stop> </linearGradient> <linearGradient id="paint10_linear" x1="411.257" y1="314.543" x2="497.208" y2="351.292" gradientUnits="userSpaceOnUse"> <stop stop-color="#42E8E0"></stop> <stop offset="0.1055" stop-color="#37B6BF"></stop> <stop offset="0.2197" stop-color="#2C87A1"></stop> <stop offset="0.338" stop-color="#235F87"></stop> <stop offset="0.4587" stop-color="#1C3F72"></stop> <stop offset="0.5824" stop-color="#162561"></stop> <stop offset="0.7105" stop-color="#121355"></stop> <stop offset="0.8458" stop-color="#10084E"></stop> <stop offset="1" stop-color="#0F054C"></stop> </linearGradient> </defs> </svg> 